<svg aria-roledescription="er" viewBox="0 0 728.4954833984375 576" style="max-width: 728.495px; background-color: white;" xmlns:xlink="http://www.w3.org/1999/xlink" xmlns="http://www.w3.org/2000/svg" width="100%" id="mermaid-0"><style>#mermaid-0{font-family:"trebuchet ms",verdana,arial,sans-serif;font-size:16px;fill:#000000;}#mermaid-0 .error-icon{fill:#552222;}#mermaid-0 .error-text{fill:#552222;stroke:#552222;}#mermaid-0 .edge-thickness-normal{stroke-width:2px;}#mermaid-0 .edge-thickness-thick{stroke-width:3.5px;}#mermaid-0 .edge-pattern-solid{stroke-dasharray:0;}#mermaid-0 .edge-pattern-dashed{stroke-dasharray:3;}#mermaid-0 .edge-pattern-dotted{stroke-dasharray:2;}#mermaid-0 .marker{fill:#000000;stroke:#000000;}#mermaid-0 .marker.cross{stroke:#000000;}#mermaid-0 svg{font-family:"trebuchet ms",verdana,arial,sans-serif;font-size:16px;}#mermaid-0 .entityBox{fill:#cde498;stroke:#13540c;}#mermaid-0 .attributeBoxOdd{fill:#ffffff;stroke:#13540c;}#mermaid-0 .attributeBoxEven{fill:#f2f2f2;stroke:#13540c;}#mermaid-0 .relationshipLabelBox{fill:hsl(78.1578947368, 58.4615384615%, 84.5098039216%);opacity:0.7;background-color:hsl(78.1578947368, 58.4615384615%, 84.5098039216%);}#mermaid-0 .relationshipLabelBox rect{opacity:0.5;}#mermaid-0 .relationshipLine{stroke:#000000;}#mermaid-0 .entityTitleText{text-anchor:middle;font-size:18px;fill:#000000;}#mermaid-0 :root{--mermaid-font-family:"trebuchet ms",verdana,arial,sans-serif;}</style><g/><defs><marker orient="auto" markerHeight="18" markerWidth="18" refY="9" refX="0" id="ONLY_ONE_START"><path d="M9,0 L9,18 M15,0 L15,18" fill="none" stroke="gray"/></marker></defs><defs><marker orient="auto" markerHeight="18" markerWidth="18" refY="9" refX="18" id="ONLY_ONE_END"><path d="M3,0 L3,18 M9,0 L9,18" fill="none" stroke="gray"/></marker></defs><defs><marker orient="auto" markerHeight="18" markerWidth="30" refY="9" refX="0" id="ZERO_OR_ONE_START"><circle r="6" cy="9" cx="21" fill="white" stroke="gray"/><path d="M9,0 L9,18" fill="none" stroke="gray"/></marker></defs><defs><marker orient="auto" markerHeight="18" markerWidth="30" refY="9" refX="30" id="ZERO_OR_ONE_END"><circle r="6" cy="9" cx="9" fill="white" stroke="gray"/><path d="M21,0 L21,18" fill="none" stroke="gray"/></marker></defs><defs><marker orient="auto" markerHeight="36" markerWidth="45" refY="18" refX="18" id="ONE_OR_MORE_START"><path d="M0,18 Q 18,0 36,18 Q 18,36 0,18 M42,9 L42,27" fill="none" stroke="gray"/></marker></defs><defs><marker orient="auto" markerHeight="36" markerWidth="45" refY="18" refX="27" id="ONE_OR_MORE_END"><path d="M3,9 L3,27 M9,18 Q27,0 45,18 Q27,36 9,18" fill="none" stroke="gray"/></marker></defs><defs><marker orient="auto" markerHeight="36" markerWidth="57" refY="18" refX="18" id="ZERO_OR_MORE_START"><circle r="6" cy="18" cx="48" fill="white" stroke="gray"/><path d="M0,18 Q18,0 36,18 Q18,36 0,18" fill="none" stroke="gray"/></marker></defs><defs><marker orient="auto" markerHeight="36" markerWidth="57" refY="18" refX="39" id="ZERO_OR_MORE_END"><circle r="6" cy="18" cx="9" fill="white" stroke="gray"/><path d="M21,18 Q39,0 57,18 Q39,36 21,18" fill="none" stroke="gray"/></marker></defs><path style="stroke: gray; fill: none;" marker-start="url(#ZERO_OR_MORE_START)" marker-end="url(#ZERO_OR_MORE_END)" d="M463.1939239501953,433.01317573556696L474.860590616862,427.5109797796392C486.5272572835286,422.0087838237113,509.860590616862,411.0043919118557,524.4439239501953,405.50219595592785C539.0272572835287,400,544.8605906168619,400,550.6939239501953,413C556.5272572835287,426,562.3605906168619,452,562.3605906168619,478C562.3605906168619,504,556.5272572835287,530,550.6939239501953,543C544.8605906168619,556,539.0272572835287,556,524.4439239501953,550.4978040440722C509.860590616862,544.9956080881443,486.5272572835286,533.9912161762887,474.860590616862,528.4890202203609L463.1939239501953,522.986824264433" class="er relationshipLine"/><path style="stroke: gray; fill: none;" marker-start="url(#ZERO_OR_MORE_START)" marker-end="url(#ZERO_OR_MORE_END)" d="M463.1939239501953,433.01317573556696L474.860590616862,427.5109797796392C486.5272572835286,422.0087838237113,509.860590616862,411.0043919118557,524.4439239501953,405.50219595592785C539.0272572835287,400,544.8605906168619,400,550.6939239501953,413C556.5272572835287,426,562.3605906168619,452,562.3605906168619,478C562.3605906168619,504,556.5272572835287,530,550.6939239501953,543C544.8605906168619,556,539.0272572835287,556,524.4439239501953,550.4978040440722C509.860590616862,544.9956080881443,486.5272572835286,533.9912161762887,474.860590616862,528.4890202203609L463.1939239501953,522.986824264433" class="er relationshipLine"/><path style="stroke: gray; fill: none;" marker-start="url(#ZERO_OR_ONE_START)" marker-end="url(#ONLY_ONE_END)" d="M105.18753488654764,289L102.65782656764712,299.1666666666667C100.1281182487466,309.3333333333333,95.06870161094555,329.6666666666667,92.53899329204505,350C90.00928497314453,370.3333333333333,90.00928497314453,390.6666666666667,90.00928497314453,400.8333333333333L90.00928497314453,411" class="er relationshipLine"/><path style="stroke: gray; fill: none;" marker-start="url(#ZERO_OR_MORE_START)" marker-end="url(#ZERO_OR_ONE_END)" d="M166.5651116656442,289L175.17835627390107,299.1666666666667C183.79160088215795,309.3333333333333,201.01809009867176,329.6666666666667,219.36836810388797,348.1666666666667C237.71864610910416,366.6666666666667,257.19271290302277,383.3333333333333,266.92974629998207,391.6666666666667L276.6667796969414,400" class="er relationshipLine"/><path style="stroke: gray; fill: none;" marker-start="url(#ZERO_OR_ONE_START)" marker-end="url(#ZERO_OR_ONE_END)" d="M575.0319595336914,203.9409092780325L586.698626200358,197.6174243983604C598.3652928670248,191.29393951868835,621.698626200358,178.64696975934416,636.2819595336914,172.32348487967207C650.8652928670248,166,656.698626200358,166,662.5319595336914,177.16666666666666C668.3652928670248,188.33333333333334,674.198626200358,210.66666666666666,674.198626200358,233C674.198626200358,255.33333333333334,668.3652928670248,277.6666666666667,662.5319595336914,288.8333333333333C656.698626200358,300,650.8652928670248,300,636.2819595336914,293.6765151203279C621.698626200358,287.35303024065587,598.3652928670248,274.7060604813117,586.698626200358,268.3825756016396L575.0319595336914,262.0590907219675" class="er relationshipLine"/><path style="stroke: gray; fill: none;" marker-start="url(#ZERO_OR_MORE_START)" marker-end="url(#ZERO_OR_ONE_END)" d="M521.4186859130859,300L521.4186859130859,308.3333333333333C521.4186859130859,316.6666666666667,521.4186859130859,333.3333333333333,511.4178217450778,350C501.4169575770696,366.6666666666667,481.4152292410533,383.3333333333333,471.4143650730451,391.6666666666667L461.4135009050369,400" class="er relationshipLine"/><path style="stroke: gray; fill: none;" marker-start="url(#ZERO_OR_MORE_START)" marker-end="url(#ZERO_OR_ONE_END)" d="M440.35268475258187,66L428.26147267589835,74.33333333333333C416.1702605992147,82.66666666666667,391.98783644584756,99.33333333333333,379.89662436916404,127.16666666666667C367.80541229248047,155,367.80541229248047,194,367.80541229248047,233C367.80541229248047,272,367.80541229248047,311,367.80541229248047,338.8333333333333C367.80541229248047,366.6666666666667,367.80541229248047,383.3333333333333,367.80541229248047,391.6666666666667L367.80541229248047,400" class="er relationshipLine"/><path style="stroke: gray; fill: none;" marker-start="url(#ZERO_OR_MORE_START)" marker-end="url(#ZERO_OR_ONE_END)" d="M488.7513874001699,66L494.1959371523226,74.33333333333333C499.64048690447527,82.66666666666667,510.52958640878063,99.33333333333333,515.9741361609332,116C521.4186859130859,132.66666666666666,521.4186859130859,149.33333333333334,521.4186859130859,157.66666666666666L521.4186859130859,166" class="er relationshipLine"/><g transform="translate(28.927207946777344,411 )" id="entity-PunishmentType-c760f53d-3408-4c4d-bbd2-f106f8d1e2b2"><rect height="134" width="122.16415405273438" y="0" x="0" class="er entityBox"/><text style="dominant-baseline: middle; text-anchor: middle; font-size: 12px;" transform="translate(61.08207702636719,12)" y="0" x="0" id="text-entity-PunishmentType-c760f53d-3408-4c4d-bbd2-f106f8d1e2b2" class="er entityLabel">PunishmentType</text><rect height="22" width="61.08207702636719" y="24" x="0" class="er attributeBoxOdd"/><text style="dominant-baseline: middle; font-size: 10.2px;" transform="translate(5,35)" y="0" x="0" id="text-entity-PunishmentType-c760f53d-3408-4c4d-bbd2-f106f8d1e2b2-attr-1-type" class="er entityLabel">WARN</text><rect height="22" width="61.08207702636719" y="24" x="61.08207702636719" class="er attributeBoxOdd"/><text style="dominant-baseline: middle; font-size: 10.2px;" transform="translate(66.08207702636719,35)" y="0" x="0" id="text-entity-PunishmentType-c760f53d-3408-4c4d-bbd2-f106f8d1e2b2-attr-1-name" class="er entityLabel">WARN</text><rect height="22" width="61.08207702636719" y="46" x="0" class="er attributeBoxEven"/><text style="dominant-baseline: middle; font-size: 10.2px;" transform="translate(5,57)" y="0" x="0" id="text-entity-PunishmentType-c760f53d-3408-4c4d-bbd2-f106f8d1e2b2-attr-2-type" class="er entityLabel">TEMPMUTE</text><rect height="22" width="61.08207702636719" y="46" x="61.08207702636719" class="er attributeBoxEven"/><text style="dominant-baseline: middle; font-size: 10.2px;" transform="translate(66.08207702636719,57)" y="0" x="0" id="text-entity-PunishmentType-c760f53d-3408-4c4d-bbd2-f106f8d1e2b2-attr-2-name" class="er entityLabel">TEMPMUTE</text><rect height="22" width="61.08207702636719" y="68" x="0" class="er attributeBoxOdd"/><text style="dominant-baseline: middle; font-size: 10.2px;" transform="translate(5,79)" y="0" x="0" id="text-entity-PunishmentType-c760f53d-3408-4c4d-bbd2-f106f8d1e2b2-attr-3-type" class="er entityLabel">MUTE</text><rect height="22" width="61.08207702636719" y="68" x="61.08207702636719" class="er attributeBoxOdd"/><text style="dominant-baseline: middle; font-size: 10.2px;" transform="translate(66.08207702636719,79)" y="0" x="0" id="text-entity-PunishmentType-c760f53d-3408-4c4d-bbd2-f106f8d1e2b2-attr-3-name" class="er entityLabel">MUTE</text><rect height="22" width="61.08207702636719" y="90" x="0" class="er attributeBoxEven"/><text style="dominant-baseline: middle; font-size: 10.2px;" transform="translate(5,101)" y="0" x="0" id="text-entity-PunishmentType-c760f53d-3408-4c4d-bbd2-f106f8d1e2b2-attr-4-type" class="er entityLabel">TEMPBAN</text><rect height="22" width="61.08207702636719" y="90" x="61.08207702636719" class="er attributeBoxEven"/><text style="dominant-baseline: middle; font-size: 10.2px;" transform="translate(66.08207702636719,101)" y="0" x="0" id="text-entity-PunishmentType-c760f53d-3408-4c4d-bbd2-f106f8d1e2b2-attr-4-name" class="er entityLabel">TEMPBAN</text><rect height="22" width="61.08207702636719" y="112" x="0" class="er attributeBoxOdd"/><text style="dominant-baseline: middle; font-size: 10.2px;" transform="translate(5,123)" y="0" x="0" id="text-entity-PunishmentType-c760f53d-3408-4c4d-bbd2-f106f8d1e2b2-attr-5-type" class="er entityLabel">BAN</text><rect height="22" width="61.08207702636719" y="112" x="61.08207702636719" class="er attributeBoxOdd"/><text style="dominant-baseline: middle; font-size: 10.2px;" transform="translate(66.08207702636719,123)" y="0" x="0" id="text-entity-PunishmentType-c760f53d-3408-4c4d-bbd2-f106f8d1e2b2-attr-5-name" class="er entityLabel">BAN</text></g><g transform="translate(272.4169006347656,400 )" id="entity-Player-4953fbc0-1438-4a86-a11f-76ec962463f1"><rect height="156" width="190.7770233154297" y="0" x="0" class="er entityBox"/><text style="dominant-baseline: middle; text-anchor: middle; font-size: 12px;" transform="translate(95.38851165771484,12)" y="0" x="0" id="text-entity-Player-4953fbc0-1438-4a86-a11f-76ec962463f1" class="er entityLabel">Player</text><rect height="22" width="54.095550537109375" y="24" x="0" class="er attributeBoxOdd"/><text style="dominant-baseline: middle; font-size: 10.2px;" transform="translate(5,35)" y="0" x="0" id="text-entity-Player-4953fbc0-1438-4a86-a11f-76ec962463f1-attr-1-type" class="er entityLabel">String</text><rect height="22" width="66.78125" y="24" x="54.095550537109375" class="er attributeBoxOdd"/><text style="dominant-baseline: middle; font-size: 10.2px;" transform="translate(59.095550537109375,35)" y="0" x="0" id="text-entity-Player-4953fbc0-1438-4a86-a11f-76ec962463f1-attr-1-name" class="er entityLabel">uuid</text><rect height="22" width="22.68768310546875" y="24" x="120.87680053710938" class="er attributeBoxOdd"/><text style="dominant-baseline: middle; font-size: 10.2px;" transform="translate(125.87680053710938,35)" y="0" x="0" id="text-entity-Player-4953fbc0-1438-4a86-a11f-76ec962463f1-attr-1-key" class="er entityLabel">PK</text><rect height="22" width="47.21253967285156" y="24" x="143.56448364257812" class="er attributeBoxOdd"/><text style="dominant-baseline: middle; font-size: 10.2px;" transform="translate(148.56448364257812,35)" y="0" x="0" id="text-entity-Player-4953fbc0-1438-4a86-a11f-76ec962463f1-attr-1-comment" class="er entityLabel"/><rect height="22" width="54.095550537109375" y="46" x="0" class="er attributeBoxEven"/><text style="dominant-baseline: middle; font-size: 10.2px;" transform="translate(5,57)" y="0" x="0" id="text-entity-Player-4953fbc0-1438-4a86-a11f-76ec962463f1-attr-2-type" class="er entityLabel">String</text><rect height="22" width="66.78125" y="46" x="54.095550537109375" class="er attributeBoxEven"/><text style="dominant-baseline: middle; font-size: 10.2px;" transform="translate(59.095550537109375,57)" y="0" x="0" id="text-entity-Player-4953fbc0-1438-4a86-a11f-76ec962463f1-attr-2-name" class="er entityLabel">discordId</text><rect height="22" width="22.68768310546875" y="46" x="120.87680053710938" class="er attributeBoxEven"/><text style="dominant-baseline: middle; font-size: 10.2px;" transform="translate(125.87680053710938,57)" y="0" x="0" id="text-entity-Player-4953fbc0-1438-4a86-a11f-76ec962463f1-attr-2-key" class="er entityLabel"/><rect height="22" width="47.21253967285156" y="46" x="143.56448364257812" class="er attributeBoxEven"/><text style="dominant-baseline: middle; font-size: 10.2px;" transform="translate(148.56448364257812,57)" y="0" x="0" id="text-entity-Player-4953fbc0-1438-4a86-a11f-76ec962463f1-attr-2-comment" class="er entityLabel"/><rect height="22" width="54.095550537109375" y="68" x="0" class="er attributeBoxOdd"/><text style="dominant-baseline: middle; font-size: 10.2px;" transform="translate(5,79)" y="0" x="0" id="text-entity-Player-4953fbc0-1438-4a86-a11f-76ec962463f1-attr-3-type" class="er entityLabel">String</text><rect height="22" width="66.78125" y="68" x="54.095550537109375" class="er attributeBoxOdd"/><text style="dominant-baseline: middle; font-size: 10.2px;" transform="translate(59.095550537109375,79)" y="0" x="0" id="text-entity-Player-4953fbc0-1438-4a86-a11f-76ec962463f1-attr-3-name" class="er entityLabel">discordRole</text><rect height="22" width="22.68768310546875" y="68" x="120.87680053710938" class="er attributeBoxOdd"/><text style="dominant-baseline: middle; font-size: 10.2px;" transform="translate(125.87680053710938,79)" y="0" x="0" id="text-entity-Player-4953fbc0-1438-4a86-a11f-76ec962463f1-attr-3-key" class="er entityLabel"/><rect height="22" width="47.21253967285156" y="68" x="143.56448364257812" class="er attributeBoxOdd"/><text style="dominant-baseline: middle; font-size: 10.2px;" transform="translate(148.56448364257812,79)" y="0" x="0" id="text-entity-Player-4953fbc0-1438-4a86-a11f-76ec962463f1-attr-3-comment" class="er entityLabel"/><rect height="22" width="54.095550537109375" y="90" x="0" class="er attributeBoxEven"/><text style="dominant-baseline: middle; font-size: 10.2px;" transform="translate(5,101)" y="0" x="0" id="text-entity-Player-4953fbc0-1438-4a86-a11f-76ec962463f1-attr-4-type" class="er entityLabel">DateTime</text><rect height="22" width="66.78125" y="90" x="54.095550537109375" class="er attributeBoxEven"/><text style="dominant-baseline: middle; font-size: 10.2px;" transform="translate(59.095550537109375,101)" y="0" x="0" id="text-entity-Player-4953fbc0-1438-4a86-a11f-76ec962463f1-attr-4-name" class="er entityLabel">createdAt</text><rect height="22" width="22.68768310546875" y="90" x="120.87680053710938" class="er attributeBoxEven"/><text style="dominant-baseline: middle; font-size: 10.2px;" transform="translate(125.87680053710938,101)" y="0" x="0" id="text-entity-Player-4953fbc0-1438-4a86-a11f-76ec962463f1-attr-4-key" class="er entityLabel"/><rect height="22" width="47.21253967285156" y="90" x="143.56448364257812" class="er attributeBoxEven"/><text style="dominant-baseline: middle; font-size: 10.2px;" transform="translate(148.56448364257812,101)" y="0" x="0" id="text-entity-Player-4953fbc0-1438-4a86-a11f-76ec962463f1-attr-4-comment" class="er entityLabel">nullable</text><rect height="22" width="54.095550537109375" y="112" x="0" class="er attributeBoxOdd"/><text style="dominant-baseline: middle; font-size: 10.2px;" transform="translate(5,123)" y="0" x="0" id="text-entity-Player-4953fbc0-1438-4a86-a11f-76ec962463f1-attr-5-type" class="er entityLabel">DateTime</text><rect height="22" width="66.78125" y="112" x="54.095550537109375" class="er attributeBoxOdd"/><text style="dominant-baseline: middle; font-size: 10.2px;" transform="translate(59.095550537109375,123)" y="0" x="0" id="text-entity-Player-4953fbc0-1438-4a86-a11f-76ec962463f1-attr-5-name" class="er entityLabel">updatedAt</text><rect height="22" width="22.68768310546875" y="112" x="120.87680053710938" class="er attributeBoxOdd"/><text style="dominant-baseline: middle; font-size: 10.2px;" transform="translate(125.87680053710938,123)" y="0" x="0" id="text-entity-Player-4953fbc0-1438-4a86-a11f-76ec962463f1-attr-5-key" class="er entityLabel"/><rect height="22" width="47.21253967285156" y="112" x="143.56448364257812" class="er attributeBoxOdd"/><text style="dominant-baseline: middle; font-size: 10.2px;" transform="translate(148.56448364257812,123)" y="0" x="0" id="text-entity-Player-4953fbc0-1438-4a86-a11f-76ec962463f1-attr-5-comment" class="er entityLabel">nullable</text><rect height="22" width="54.095550537109375" y="134" x="0" class="er attributeBoxEven"/><text style="dominant-baseline: middle; font-size: 10.2px;" transform="translate(5,145)" y="0" x="0" id="text-entity-Player-4953fbc0-1438-4a86-a11f-76ec962463f1-attr-6-type" class="er entityLabel">String</text><rect height="22" width="66.78125" y="134" x="54.095550537109375" class="er attributeBoxEven"/><text style="dominant-baseline: middle; font-size: 10.2px;" transform="translate(59.095550537109375,145)" y="0" x="0" id="text-entity-Player-4953fbc0-1438-4a86-a11f-76ec962463f1-attr-6-name" class="er entityLabel">chatChannel</text><rect height="22" width="22.68768310546875" y="134" x="120.87680053710938" class="er attributeBoxEven"/><text style="dominant-baseline: middle; font-size: 10.2px;" transform="translate(125.87680053710938,145)" y="0" x="0" id="text-entity-Player-4953fbc0-1438-4a86-a11f-76ec962463f1-attr-6-key" class="er entityLabel"/><rect height="22" width="47.21253967285156" y="134" x="143.56448364257812" class="er attributeBoxEven"/><text style="dominant-baseline: middle; font-size: 10.2px;" transform="translate(148.56448364257812,145)" y="0" x="0" id="text-entity-Player-4953fbc0-1438-4a86-a11f-76ec962463f1-attr-6-comment" class="er entityLabel"/></g><g transform="translate(20,177 )" id="entity-Punishment-8fd4ee4a-f3b2-4a0b-aea7-680924733b70"><rect height="112" width="198.2433319091797" y="0" x="0" class="er entityBox"/><text style="dominant-baseline: middle; text-anchor: middle; font-size: 12px;" transform="translate(99.12166595458984,12)" y="0" x="0" id="text-entity-Punishment-8fd4ee4a-f3b2-4a0b-aea7-680924733b70" class="er entityLabel">Punishment</text><rect height="22" width="84.55107116699219" y="24" x="0" class="er attributeBoxOdd"/><text style="dominant-baseline: middle; font-size: 10.2px;" transform="translate(5,35)" y="0" x="0" id="text-entity-Punishment-8fd4ee4a-f3b2-4a0b-aea7-680924733b70-attr-1-type" class="er entityLabel">Int</text><rect height="22" width="43.79203796386719" y="24" x="84.55107116699219" class="er attributeBoxOdd"/><text style="dominant-baseline: middle; font-size: 10.2px;" transform="translate(89.55107116699219,35)" y="0" x="0" id="text-entity-Punishment-8fd4ee4a-f3b2-4a0b-aea7-680924733b70-attr-1-name" class="er entityLabel">id</text><rect height="22" width="22.68768310546875" y="24" x="128.34310913085938" class="er attributeBoxOdd"/><text style="dominant-baseline: middle; font-size: 10.2px;" transform="translate(133.34310913085938,35)" y="0" x="0" id="text-entity-Punishment-8fd4ee4a-f3b2-4a0b-aea7-680924733b70-attr-1-key" class="er entityLabel">PK</text><rect height="22" width="47.21253967285156" y="24" x="151.03079223632812" class="er attributeBoxOdd"/><text style="dominant-baseline: middle; font-size: 10.2px;" transform="translate(156.03079223632812,35)" y="0" x="0" id="text-entity-Punishment-8fd4ee4a-f3b2-4a0b-aea7-680924733b70-attr-1-comment" class="er entityLabel"/><rect height="22" width="84.55107116699219" y="46" x="0" class="er attributeBoxEven"/><text style="dominant-baseline: middle; font-size: 10.2px;" transform="translate(5,57)" y="0" x="0" id="text-entity-Punishment-8fd4ee4a-f3b2-4a0b-aea7-680924733b70-attr-2-type" class="er entityLabel">PunishmentType</text><rect height="22" width="43.79203796386719" y="46" x="84.55107116699219" class="er attributeBoxEven"/><text style="dominant-baseline: middle; font-size: 10.2px;" transform="translate(89.55107116699219,57)" y="0" x="0" id="text-entity-Punishment-8fd4ee4a-f3b2-4a0b-aea7-680924733b70-attr-2-name" class="er entityLabel">type</text><rect height="22" width="22.68768310546875" y="46" x="128.34310913085938" class="er attributeBoxEven"/><text style="dominant-baseline: middle; font-size: 10.2px;" transform="translate(133.34310913085938,57)" y="0" x="0" id="text-entity-Punishment-8fd4ee4a-f3b2-4a0b-aea7-680924733b70-attr-2-key" class="er entityLabel"/><rect height="22" width="47.21253967285156" y="46" x="151.03079223632812" class="er attributeBoxEven"/><text style="dominant-baseline: middle; font-size: 10.2px;" transform="translate(156.03079223632812,57)" y="0" x="0" id="text-entity-Punishment-8fd4ee4a-f3b2-4a0b-aea7-680924733b70-attr-2-comment" class="er entityLabel"/><rect height="22" width="84.55107116699219" y="68" x="0" class="er attributeBoxOdd"/><text style="dominant-baseline: middle; font-size: 10.2px;" transform="translate(5,79)" y="0" x="0" id="text-entity-Punishment-8fd4ee4a-f3b2-4a0b-aea7-680924733b70-attr-3-type" class="er entityLabel">String</text><rect height="22" width="43.79203796386719" y="68" x="84.55107116699219" class="er attributeBoxOdd"/><text style="dominant-baseline: middle; font-size: 10.2px;" transform="translate(89.55107116699219,79)" y="0" x="0" id="text-entity-Punishment-8fd4ee4a-f3b2-4a0b-aea7-680924733b70-attr-3-name" class="er entityLabel">reason</text><rect height="22" width="22.68768310546875" y="68" x="128.34310913085938" class="er attributeBoxOdd"/><text style="dominant-baseline: middle; font-size: 10.2px;" transform="translate(133.34310913085938,79)" y="0" x="0" id="text-entity-Punishment-8fd4ee4a-f3b2-4a0b-aea7-680924733b70-attr-3-key" class="er entityLabel"/><rect height="22" width="47.21253967285156" y="68" x="151.03079223632812" class="er attributeBoxOdd"/><text style="dominant-baseline: middle; font-size: 10.2px;" transform="translate(156.03079223632812,79)" y="0" x="0" id="text-entity-Punishment-8fd4ee4a-f3b2-4a0b-aea7-680924733b70-attr-3-comment" class="er entityLabel">nullable</text><rect height="22" width="84.55107116699219" y="90" x="0" class="er attributeBoxEven"/><text style="dominant-baseline: middle; font-size: 10.2px;" transform="translate(5,101)" y="0" x="0" id="text-entity-Punishment-8fd4ee4a-f3b2-4a0b-aea7-680924733b70-attr-4-type" class="er entityLabel">DateTime</text><rect height="22" width="43.79203796386719" y="90" x="84.55107116699219" class="er attributeBoxEven"/><text style="dominant-baseline: middle; font-size: 10.2px;" transform="translate(89.55107116699219,101)" y="0" x="0" id="text-entity-Punishment-8fd4ee4a-f3b2-4a0b-aea7-680924733b70-attr-4-name" class="er entityLabel">expires</text><rect height="22" width="22.68768310546875" y="90" x="128.34310913085938" class="er attributeBoxEven"/><text style="dominant-baseline: middle; font-size: 10.2px;" transform="translate(133.34310913085938,101)" y="0" x="0" id="text-entity-Punishment-8fd4ee4a-f3b2-4a0b-aea7-680924733b70-attr-4-key" class="er entityLabel"/><rect height="22" width="47.21253967285156" y="90" x="151.03079223632812" class="er attributeBoxEven"/><text style="dominant-baseline: middle; font-size: 10.2px;" transform="translate(156.03079223632812,101)" y="0" x="0" id="text-entity-Punishment-8fd4ee4a-f3b2-4a0b-aea7-680924733b70-attr-4-comment" class="er entityLabel">nullable</text></g><g transform="translate(467.80541229248047,166 )" id="entity-PermGroup-1e1f674b-416c-43d5-8419-88dbff7701d9"><rect height="134" width="107.22654724121094" y="0" x="0" class="er entityBox"/><text style="dominant-baseline: middle; text-anchor: middle; font-size: 12px;" transform="translate(53.61327362060547,12)" y="0" x="0" id="text-entity-PermGroup-1e1f674b-416c-43d5-8419-88dbff7701d9" class="er entityLabel">PermGroup</text><rect height="22" width="46.649749755859375" y="24" x="0" class="er attributeBoxOdd"/><text style="dominant-baseline: middle; font-size: 10.2px;" transform="translate(5,35)" y="0" x="0" id="text-entity-PermGroup-1e1f674b-416c-43d5-8419-88dbff7701d9-attr-1-type" class="er entityLabel">Int</text><rect height="22" width="37.88911437988281" y="24" x="46.649749755859375" class="er attributeBoxOdd"/><text style="dominant-baseline: middle; font-size: 10.2px;" transform="translate(51.649749755859375,35)" y="0" x="0" id="text-entity-PermGroup-1e1f674b-416c-43d5-8419-88dbff7701d9-attr-1-name" class="er entityLabel">id</text><rect height="22" width="22.68768310546875" y="24" x="84.53886413574219" class="er attributeBoxOdd"/><text style="dominant-baseline: middle; font-size: 10.2px;" transform="translate(89.53886413574219,35)" y="0" x="0" id="text-entity-PermGroup-1e1f674b-416c-43d5-8419-88dbff7701d9-attr-1-key" class="er entityLabel">PK</text><rect height="22" width="46.649749755859375" y="46" x="0" class="er attributeBoxEven"/><text style="dominant-baseline: middle; font-size: 10.2px;" transform="translate(5,57)" y="0" x="0" id="text-entity-PermGroup-1e1f674b-416c-43d5-8419-88dbff7701d9-attr-2-type" class="er entityLabel">String</text><rect height="22" width="37.88911437988281" y="46" x="46.649749755859375" class="er attributeBoxEven"/><text style="dominant-baseline: middle; font-size: 10.2px;" transform="translate(51.649749755859375,57)" y="0" x="0" id="text-entity-PermGroup-1e1f674b-416c-43d5-8419-88dbff7701d9-attr-2-name" class="er entityLabel">name</text><rect height="22" width="22.68768310546875" y="46" x="84.53886413574219" class="er attributeBoxEven"/><text style="dominant-baseline: middle; font-size: 10.2px;" transform="translate(89.53886413574219,57)" y="0" x="0" id="text-entity-PermGroup-1e1f674b-416c-43d5-8419-88dbff7701d9-attr-2-key" class="er entityLabel"/><rect height="22" width="46.649749755859375" y="68" x="0" class="er attributeBoxOdd"/><text style="dominant-baseline: middle; font-size: 10.2px;" transform="translate(5,79)" y="0" x="0" id="text-entity-PermGroup-1e1f674b-416c-43d5-8419-88dbff7701d9-attr-3-type" class="er entityLabel">String</text><rect height="22" width="37.88911437988281" y="68" x="46.649749755859375" class="er attributeBoxOdd"/><text style="dominant-baseline: middle; font-size: 10.2px;" transform="translate(51.649749755859375,79)" y="0" x="0" id="text-entity-PermGroup-1e1f674b-416c-43d5-8419-88dbff7701d9-attr-3-name" class="er entityLabel">prefix</text><rect height="22" width="22.68768310546875" y="68" x="84.53886413574219" class="er attributeBoxOdd"/><text style="dominant-baseline: middle; font-size: 10.2px;" transform="translate(89.53886413574219,79)" y="0" x="0" id="text-entity-PermGroup-1e1f674b-416c-43d5-8419-88dbff7701d9-attr-3-key" class="er entityLabel"/><rect height="22" width="46.649749755859375" y="90" x="0" class="er attributeBoxEven"/><text style="dominant-baseline: middle; font-size: 10.2px;" transform="translate(5,101)" y="0" x="0" id="text-entity-PermGroup-1e1f674b-416c-43d5-8419-88dbff7701d9-attr-4-type" class="er entityLabel">String</text><rect height="22" width="37.88911437988281" y="90" x="46.649749755859375" class="er attributeBoxEven"/><text style="dominant-baseline: middle; font-size: 10.2px;" transform="translate(51.649749755859375,101)" y="0" x="0" id="text-entity-PermGroup-1e1f674b-416c-43d5-8419-88dbff7701d9-attr-4-name" class="er entityLabel">color</text><rect height="22" width="22.68768310546875" y="90" x="84.53886413574219" class="er attributeBoxEven"/><text style="dominant-baseline: middle; font-size: 10.2px;" transform="translate(89.53886413574219,101)" y="0" x="0" id="text-entity-PermGroup-1e1f674b-416c-43d5-8419-88dbff7701d9-attr-4-key" class="er entityLabel"/><rect height="22" width="46.649749755859375" y="112" x="0" class="er attributeBoxOdd"/><text style="dominant-baseline: middle; font-size: 10.2px;" transform="translate(5,123)" y="0" x="0" id="text-entity-PermGroup-1e1f674b-416c-43d5-8419-88dbff7701d9-attr-5-type" class="er entityLabel">Boolean</text><rect height="22" width="37.88911437988281" y="112" x="46.649749755859375" class="er attributeBoxOdd"/><text style="dominant-baseline: middle; font-size: 10.2px;" transform="translate(51.649749755859375,123)" y="0" x="0" id="text-entity-PermGroup-1e1f674b-416c-43d5-8419-88dbff7701d9-attr-5-name" class="er entityLabel">bold</text><rect height="22" width="22.68768310546875" y="112" x="84.53886413574219" class="er attributeBoxOdd"/><text style="dominant-baseline: middle; font-size: 10.2px;" transform="translate(89.53886413574219,123)" y="0" x="0" id="text-entity-PermGroup-1e1f674b-416c-43d5-8419-88dbff7701d9-attr-5-key" class="er entityLabel"/></g><g transform="translate(423.7244300842285,20 )" id="entity-Permission-9c63df86-1423-4da9-85ca-9a6132a2e908"><rect height="46" width="100" y="0" x="0" class="er entityBox"/><text style="dominant-baseline: middle; text-anchor: middle; font-size: 12px;" transform="translate(50,12)" y="0" x="0" id="text-entity-Permission-9c63df86-1423-4da9-85ca-9a6132a2e908" class="er entityLabel">Permission</text><rect height="22" width="38.90184020996094" y="24" x="0" class="er attributeBoxOdd"/><text style="dominant-baseline: middle; font-size: 10.2px;" transform="translate(5,35)" y="0" x="0" id="text-entity-Permission-9c63df86-1423-4da9-85ca-9a6132a2e908-attr-1-type" class="er entityLabel">String</text><rect height="22" width="36.904693603515625" y="24" x="38.90184020996094" class="er attributeBoxOdd"/><text style="dominant-baseline: middle; font-size: 10.2px;" transform="translate(43.90184020996094,35)" y="0" x="0" id="text-entity-Permission-9c63df86-1423-4da9-85ca-9a6132a2e908-attr-1-name" class="er entityLabel">name</text><rect height="22" width="24.193466186523438" y="24" x="75.80653381347656" class="er attributeBoxOdd"/><text style="dominant-baseline: middle; font-size: 10.2px;" transform="translate(80.80653381347656,35)" y="0" x="0" id="text-entity-Permission-9c63df86-1423-4da9-85ca-9a6132a2e908-attr-1-key" class="er entityLabel">PK</text></g><rect height="0" width="0" y="478.0000305175781" x="562.360595703125" class="er relationshipLabelBox"/><text style="text-anchor: middle; dominant-baseline: middle; font-size: 12px;" y="478.0000305175781" x="562.360595703125" id="rel1" class="er relationshipLabel"/><rect height="0" width="0" y="478.0000305175781" x="562.360595703125" class="er relationshipLabelBox"/><text style="text-anchor: middle; dominant-baseline: middle; font-size: 12px;" y="478.0000305175781" x="562.360595703125" id="rel2" class="er relationshipLabel"/><rect height="14" width="58.38671875" y="342.3835144042969" x="63.42352294921875" class="er relationshipLabelBox"/><text style="text-anchor: middle; dominant-baseline: middle; font-size: 12px;" y="349.3835144042969" x="92.61688232421875" id="rel3" class="er relationshipLabel">enum:type</text><rect height="14" width="47.1796875" y="340.44293212890625" x="195.06243896484375" class="er relationshipLabelBox"/><text style="text-anchor: middle; dominant-baseline: middle; font-size: 12px;" y="347.44293212890625" x="218.65228271484375" id="rel4" class="er relationshipLabel">punisher</text><rect height="14" width="68.2890625" y="226.00001525878906" x="640.0540771484375" class="er relationshipLabelBox"/><text style="text-anchor: middle; dominant-baseline: middle; font-size: 12px;" y="233.00001525878906" x="674.1986083984375" id="rel5" class="er relationshipLabel">parentGroup</text><rect height="14" width="34.9921875" y="350.9308776855469" x="488.4618225097656" class="er relationshipLabelBox"/><text style="text-anchor: middle; dominant-baseline: middle; font-size: 12px;" y="357.9308776855469" x="505.9579162597656" id="rel6" class="er relationshipLabel">player</text><rect height="14" width="34.9921875" y="212.2293701171875" x="350.329833984375" class="er relationshipLabelBox"/><text style="text-anchor: middle; dominant-baseline: middle; font-size: 12px;" y="219.2293701171875" x="367.825927734375" id="rel7" class="er relationshipLabel">player</text><rect height="14" width="60.630859375" y="105.89845275878906" x="484.58453369140625" class="er relationshipLabelBox"/><text style="text-anchor: middle; dominant-baseline: middle; font-size: 12px;" y="112.89845275878906" x="514.8999633789062" id="rel8" class="er relationshipLabel">permGroup</text></svg>