<svg version="1.1" xmlns="http://www.w3.org/2000/svg" viewBox="0 0 2918.6676131878544 1610.9659860773895" width="2918.6676131878544" height="1610.9659860773895">
  <!-- svg-source:excalidraw -->
  
  <defs>
    <style class="style-fonts">
      @font-face {
        font-family: "Virgil";
        src: url("https://excalidraw.com/Virgil.woff2");
      }
      @font-face {
        font-family: "Cascadia";
        src: url("https://excalidraw.com/Cascadia.woff2");
      }
    </style>
  </defs>
  <rect x="0" y="0" width="2918.6676131878544" height="1610.9659860773895" fill="#ffffff"></rect><g stroke-linecap="round" transform="translate(1292.177850143623 55.29096316824382) rotate(0 327 63)"><path d="M31.5 0 M31.5 0 C240.87 3.08, 450.53 2.89, 622.5 0 M31.5 0 C190.79 1.71, 349.18 1.69, 622.5 0 M622.5 0 C643.95 -1.98, 655.56 8.85, 654 31.5 M622.5 0 C643.24 0.05, 652.91 11.35, 654 31.5 M654 31.5 C653.48 55.53, 654.73 77.97, 654 94.5 M654 31.5 C654.15 48.79, 653.87 67.53, 654 94.5 M654 94.5 C655.93 114.14, 643.54 124.27, 622.5 126 M654 94.5 C651.97 114.23, 641.67 126.48, 622.5 126 M622.5 126 C465.15 125.85, 307.32 126.91, 31.5 126 M622.5 126 C410.71 124.77, 197.97 125.25, 31.5 126 M31.5 126 C12.23 125.19, 0.39 115.2, 0 94.5 M31.5 126 C10.04 125.32, 0.05 117.37, 0 94.5 M0 94.5 C-1.39 68.99, 1.37 44.45, 0 31.5 M0 94.5 C0.62 78.69, -0.02 60.51, 0 31.5 M0 31.5 C0.34 11.48, 9.92 -1.7, 31.5 0 M0 31.5 C-1.58 10.49, 8.54 2.17, 31.5 0" stroke="#000000" stroke-width="1" fill="none"></path></g><g transform="translate(1536.177850143623 95.79096316824382) rotate(0 55.54999923706055 21.599999999999994)"><text x="0" y="0" font-family="Virgil, Segoe UI Emoji" font-size="36px" fill="#000000" text-anchor="start" style="white-space: pre;" direction="ltr" dominant-baseline="text-before-edge">Animus</text></g><g stroke-linecap="round" transform="translate(815.3332744241702 313.78621811954054) rotate(0 101.5 39.5)"><path d="M19.75 0 M19.75 0 C58.85 1.49, 99.99 -2.24, 183.25 0 M19.75 0 C52.09 -0.46, 85.62 -0.19, 183.25 0 M183.25 0 C195.17 1.93, 201.06 8.31, 203 19.75 M183.25 0 C196.76 1.35, 202.73 5.98, 203 19.75 M203 19.75 C202.87 29.1, 204.19 38.71, 203 59.25 M203 19.75 C203.47 31.73, 202.59 44.09, 203 59.25 M203 59.25 C203.77 71.15, 195.83 77.04, 183.25 79 M203 59.25 C204.26 70.26, 195 78.69, 183.25 79 M183.25 79 C131.84 79.4, 78.22 79.13, 19.75 79 M183.25 79 C128.02 77.77, 72.44 78.18, 19.75 79 M19.75 79 C5.93 80.58, -1.74 73.86, 0 59.25 M19.75 79 C4.33 80.83, -0.96 74.01, 0 59.25 M0 59.25 C1.79 48.67, -0.51 37.62, 0 19.75 M0 59.25 C-1.06 48.11, -1.22 37.03, 0 19.75 M0 19.75 C-0.22 7.18, 5.55 1.72, 19.75 0 M0 19.75 C0.2 8.1, 6.95 -1.67, 19.75 0" stroke="#000000" stroke-width="1" fill="none"></path></g><g transform="translate(865.3332744241702 339.28621811954054) rotate(0 49.43333435058594 12)"><text x="0" y="0" font-family="Virgil, Segoe UI Emoji" font-size="20px" fill="#000000" text-anchor="start" style="white-space: pre;" direction="ltr" dominant-baseline="text-before-edge">Database</text></g><g stroke-linecap="round" transform="translate(1138.3332744241702 337.78621811954054) rotate(0 68 37)"><path d="M18.5 0 M18.5 0 C42.03 0.02, 63.03 -1.06, 117.5 0 M18.5 0 C38.2 -0.75, 58.69 -0.62, 117.5 0 M117.5 0 C130 1.67, 136.6 6.77, 136 18.5 M117.5 0 C128.99 -1.53, 136.9 5.54, 136 18.5 M136 18.5 C135.54 28.87, 136.85 39.27, 136 55.5 M136 18.5 C136.07 31.12, 136.67 43.95, 136 55.5 M136 55.5 C135.61 68.69, 129.42 73.6, 117.5 74 M136 55.5 C136.97 66.96, 130.43 75.17, 117.5 74 M117.5 74 C86.25 73.71, 54.19 75.67, 18.5 74 M117.5 74 C89.89 75.01, 62.09 74.2, 18.5 74 M18.5 74 C7.12 74.34, 0.88 69.5, 0 55.5 M18.5 74 C5.55 75.6, -0.83 67.25, 0 55.5 M0 55.5 C0.98 49.21, 0.6 41.34, 0 18.5 M0 55.5 C0.6 44.47, 0.65 35.13, 0 18.5 M0 18.5 C-1.87 6.82, 6.52 -1.9, 18.5 0 M0 18.5 C-1.61 5.6, 8.14 0.88, 18.5 0" stroke="#000000" stroke-width="1" fill="none"></path></g><g transform="translate(1180.3332744241702 365.28621811954054) rotate(0 23.816667556762695 12)"><text x="0" y="0" font-family="Virgil, Segoe UI Emoji" font-size="20px" fill="#000000" text-anchor="start" style="white-space: pre;" direction="ltr" dominant-baseline="text-before-edge">Back</text></g><g stroke-linecap="round" transform="translate(1113.3332744241702 312.78621811954054) rotate(0 169 101.5)"><path d="M32 0 M32 0 C108.82 2, 186.6 0.81, 306 0 M32 0 C91.46 0.22, 151.64 1.22, 306 0 M306 0 C326.69 -1.82, 336.19 11.99, 338 32 M306 0 C326.89 0.88, 338.71 9.95, 338 32 M338 32 C338.94 73.84, 339 113.54, 338 171 M338 32 C338.22 86.75, 338.82 141.91, 338 171 M338 171 C338.74 191.97, 325.75 203.71, 306 203 M338 171 C339.56 190.94, 326.13 203.57, 306 203 M306 203 C208.84 203.63, 113.61 203.63, 32 203 M306 203 C200.85 202.25, 95.91 202.39, 32 203 M32 203 C9.96 203.68, 1.26 191.95, 0 171 M32 203 C10.81 202.23, -1.62 191.62, 0 171 M0 171 C-0.07 139.57, 0.39 111.31, 0 32 M0 171 C0.35 124.42, 0.2 77.5, 0 32 M0 32 C0.8 10.73, 9.99 0.64, 32 0 M0 32 C1.14 12.12, 9.13 -0.58, 32 0" stroke="#000000" stroke-width="1" fill="none"></path></g><g stroke-linecap="round" transform="translate(1289.3332744241702 337.78621811954054) rotate(0 68 37)"><path d="M18.5 0 M18.5 0 C52.88 2.43, 87.25 2.36, 117.5 0 M18.5 0 C55.58 -0.08, 94.18 0.3, 117.5 0 M117.5 0 C131.09 -1.16, 135.44 4.85, 136 18.5 M117.5 0 C127.6 0.77, 136.68 5.5, 136 18.5 M136 18.5 C136.42 30.05, 136.78 41.24, 136 55.5 M136 18.5 C136.12 26.03, 134.92 35.73, 136 55.5 M136 55.5 C134.2 66.84, 129.03 75.04, 117.5 74 M136 55.5 C135.37 66.11, 131.43 73.16, 117.5 74 M117.5 74 C92.99 72.54, 66.11 73.09, 18.5 74 M117.5 74 C90.78 73.74, 63.43 74.55, 18.5 74 M18.5 74 C8.02 74.94, -1.5 69.79, 0 55.5 M18.5 74 C8.14 73.16, 1.97 66.85, 0 55.5 M0 55.5 C-0.24 47.2, 0.19 35, 0 18.5 M0 55.5 C1.03 46.59, 0.02 39.39, 0 18.5 M0 18.5 C-0.18 6.53, 4.43 -1.5, 18.5 0 M0 18.5 C0.8 8.21, 8.45 -0.02, 18.5 0" stroke="#000000" stroke-width="1" fill="none"></path></g><g transform="translate(1331.3332744241702 365.28621811954054) rotate(0 23.816667556762695 12)"><text x="0" y="0" font-family="Virgil, Segoe UI Emoji" font-size="20px" fill="#000000" text-anchor="start" style="white-space: pre;" direction="ltr" dominant-baseline="text-before-edge">Back</text></g><g stroke-linecap="round" transform="translate(1137.3332744241702 424.78621811954054) rotate(0 68 37)"><path d="M18.5 0 M18.5 0 C43.89 0.06, 66.69 -0.4, 117.5 0 M18.5 0 C47.64 -0.73, 76.48 0.26, 117.5 0 M117.5 0 C130.85 -1.31, 135.13 5.8, 136 18.5 M117.5 0 C128.38 -1.64, 137.94 4.32, 136 18.5 M136 18.5 C135.21 27.72, 135.16 39.55, 136 55.5 M136 18.5 C135.13 25.96, 136.52 34.47, 136 55.5 M136 55.5 C135.35 68.19, 130.94 75.14, 117.5 74 M136 55.5 C134.04 66.64, 129.79 75.97, 117.5 74 M117.5 74 C90.53 72.52, 61.06 72.94, 18.5 74 M117.5 74 C85.93 74.06, 53.49 74.4, 18.5 74 M18.5 74 C4.35 75.35, 0.44 68.18, 0 55.5 M18.5 74 C5.38 74.3, -0.13 66.83, 0 55.5 M0 55.5 C-1.47 45.65, -1.74 38.55, 0 18.5 M0 55.5 C0.61 46.1, 0.47 35.15, 0 18.5 M0 18.5 C0.75 5.76, 6.13 -1.71, 18.5 0 M0 18.5 C2.1 5, 6.54 -1.14, 18.5 0" stroke="#000000" stroke-width="1" fill="none"></path></g><g transform="translate(1179.3332744241702 452.28621811954054) rotate(0 23.816667556762695 12)"><text x="0" y="0" font-family="Virgil, Segoe UI Emoji" font-size="20px" fill="#000000" text-anchor="start" style="white-space: pre;" direction="ltr" dominant-baseline="text-before-edge">Back</text></g><g stroke-linecap="round" transform="translate(1286.3332744241702 422.78621811954054) rotate(0 68 37)"><path d="M18.5 0 M18.5 0 C41.54 1.59, 69.49 -0.04, 117.5 0 M18.5 0 C53.46 -1.11, 87.04 -0.79, 117.5 0 M117.5 0 C128.75 -0.24, 135.43 6.77, 136 18.5 M117.5 0 C128.64 -2.07, 135.04 6.58, 136 18.5 M136 18.5 C134.02 28.65, 133.87 34.27, 136 55.5 M136 18.5 C136.58 26.73, 134.89 35.2, 136 55.5 M136 55.5 C137.78 67.86, 129.37 72.86, 117.5 74 M136 55.5 C135.55 69.63, 130.04 71.95, 117.5 74 M117.5 74 C88.07 72.12, 57.48 73.23, 18.5 74 M117.5 74 C77.76 75.74, 39.1 74.64, 18.5 74 M18.5 74 C5.63 75.76, 0.26 67.86, 0 55.5 M18.5 74 C8.47 72.67, 0.62 67.26, 0 55.5 M0 55.5 C-1.56 46.5, 1.88 36.47, 0 18.5 M0 55.5 C-0.62 42.35, -0.95 27.99, 0 18.5 M0 18.5 C1.02 7.08, 7.42 1.72, 18.5 0 M0 18.5 C0.91 5.04, 4.16 -2.15, 18.5 0" stroke="#000000" stroke-width="1" fill="none"></path></g><g transform="translate(1328.3332744241702 450.28621811954054) rotate(0 23.816667556762695 12)"><text x="0" y="0" font-family="Virgil, Segoe UI Emoji" font-size="20px" fill="#000000" text-anchor="start" style="white-space: pre;" direction="ltr" dominant-baseline="text-before-edge">Back</text></g><g stroke-linecap="round"><g transform="translate(1111.9819713972984 364.21160569976144) rotate(0 -43.665019822894294 0.7603936090742707)"><path d="M-0.93 -0.78 C-15.49 -0.41, -72.8 1.74, -87.5 2.3 M0.79 1.43 C-13.87 1.41, -73.53 0.52, -88.12 0.37" stroke="#000000" stroke-width="1" fill="none"></path></g><g transform="translate(1111.9819713972984 364.21160569976144) rotate(0 -43.665019822894294 0.7603936090742707)"><path d="M-61.09 -8.48 C-67.41 -8.5, -75.22 -4.52, -86.94 2.25 M-60.04 -8.72 C-69.11 -6.88, -77.18 -4.27, -88.04 -0.63" stroke="#000000" stroke-width="1" fill="none"></path></g><g transform="translate(1111.9819713972984 364.21160569976144) rotate(0 -43.665019822894294 0.7603936090742707)"><path d="M-61.35 12.04 C-67.61 6.06, -75.35 4.08, -86.94 2.25 M-60.3 11.8 C-69.46 7.17, -77.45 3.33, -88.04 -0.63" stroke="#000000" stroke-width="1" fill="none"></path></g></g><mask></mask><g stroke-linecap="round" transform="translate(766.9553447366702 264.90743393985304) rotate(0 368.5 151.5)"><path d="M32 0 M32 0 C283.78 -0.42, 533.85 -0.1, 705 0 M32 0 C209.95 0.62, 387.8 1.01, 705 0 M705 0 C726.31 1.82, 737.48 11.94, 737 32 M705 0 C726.85 1.72, 739.24 12.06, 737 32 M737 32 C734.65 125.85, 736.32 220.74, 737 271 M737 32 C735.9 92.64, 736.07 151.75, 737 271 M737 271 C735.41 293.02, 727.16 302.36, 705 303 M737 271 C736.13 294.58, 726.93 303.68, 705 303 M705 303 C468.84 300.96, 232.99 301.59, 32 303 M705 303 C450.28 302.6, 195.9 302.37, 32 303 M32 303 C10.85 303.17, -0.91 290.64, 0 271 M32 303 C10.23 303.55, -1.95 293.87, 0 271 M0 271 C-2 203.19, -2.29 131.67, 0 32 M0 271 C-1.57 223.02, 0.03 173.75, 0 32 M0 32 C-1.71 12.29, 11.12 -0.05, 32 0 M0 32 C0.67 10.41, 12.69 -0.7, 32 0" stroke="#000000" stroke-width="1" fill="none"></path></g><g stroke-linecap="round" transform="translate(2106.09108692417 641.611291361728) rotate(0 101 35)"><path d="M17.5 0 M17.5 0 C64.15 -2.34, 105.3 1.08, 184.5 0 M17.5 0 C71.25 0.39, 124.91 0.42, 184.5 0 M184.5 0 C195.03 1.21, 200.22 4.75, 202 17.5 M184.5 0 C195.66 0.31, 203.29 6.82, 202 17.5 M202 17.5 C202.42 28.36, 203 37.16, 202 52.5 M202 17.5 C202.46 26.46, 202.59 37.71, 202 52.5 M202 52.5 C203.3 63.13, 197.17 70.67, 184.5 70 M202 52.5 C203.35 61.95, 194.27 69.19, 184.5 70 M184.5 70 C146.3 69.55, 107.13 69.62, 17.5 70 M184.5 70 C125.82 70.33, 67.19 72.09, 17.5 70 M17.5 70 C7.01 68.76, -1.58 64.05, 0 52.5 M17.5 70 C7.23 68.95, 1.72 66.37, 0 52.5 M0 52.5 C1.24 40.73, 1.48 32.34, 0 17.5 M0 52.5 C-0.21 41.59, 0.46 30.46, 0 17.5 M0 17.5 C-0.31 5.37, 3.85 1.44, 17.5 0 M0 17.5 C2.25 5.57, 5.79 -1.87, 17.5 0" stroke="#000000" stroke-width="1" fill="none"></path></g><g transform="translate(2163.09108692417 662.111291361728) rotate(0 39.525001525878906 12)"><text x="0" y="0" font-family="Virgil, Segoe UI Emoji" font-size="20px" fill="#000000" text-anchor="start" style="white-space: pre;" direction="ltr" dominant-baseline="text-before-edge">Registry</text></g><g stroke-linecap="round" transform="translate(1856.4972148538577 410.9446043500093) rotate(0 102.5 33)"><path d="M16.5 0 M16.5 0 C57.37 0.01, 100.4 -2.31, 188.5 0 M16.5 0 C61.58 -1.66, 107.97 -1.32, 188.5 0 M188.5 0 C200.67 1.4, 205.85 3.78, 205 16.5 M188.5 0 C198.27 1.37, 206.15 5.48, 205 16.5 M205 16.5 C204.54 26.16, 203.96 38.76, 205 49.5 M205 16.5 C204.95 25.84, 205.64 33.88, 205 49.5 M205 49.5 C205.96 61.89, 201.04 66.74, 188.5 66 M205 49.5 C203.44 62.5, 200.33 66.19, 188.5 66 M188.5 66 C139.06 67.16, 86.45 68.97, 16.5 66 M188.5 66 C142.1 64.88, 95.87 66.77, 16.5 66 M16.5 66 C7.36 64.36, -1.42 59.11, 0 49.5 M16.5 66 C4.78 67.85, 0.87 62.7, 0 49.5 M0 49.5 C-2.21 40.7, -0.25 37.05, 0 16.5 M0 49.5 C-1.25 40.76, -0.55 31.81, 0 16.5 M0 16.5 C1.56 5.93, 5.13 0.33, 16.5 0 M0 16.5 C-0.93 4.55, 7.67 -0.94, 16.5 0" stroke="#000000" stroke-width="1" fill="none"></path></g><g transform="translate(1921.4972148538577 430.4446043500093) rotate(0 31.933332443237305 12)"><text x="0" y="0" font-family="Virgil, Segoe UI Emoji" font-size="20px" fill="#000000" text-anchor="start" style="white-space: pre;" direction="ltr" dominant-baseline="text-before-edge">Worker</text></g><g stroke-linecap="round" transform="translate(1838.7874980569827 390.64913315860304) rotate(0 236 96)"><path d="M32 0 M32 0 C132.39 0.91, 229.74 0.92, 440 0 M32 0 C127.05 -1.35, 221.97 -1.51, 440 0 M440 0 C460.11 -0.2, 472.24 10.39, 472 32 M440 0 C461.68 -1.84, 470.35 12.4, 472 32 M472 32 C472.96 71.82, 472.98 116.4, 472 160 M472 32 C473.78 75.36, 472.15 117.13, 472 160 M472 160 C471.05 181.45, 461.51 193.22, 440 192 M472 160 C470.03 181.18, 459.92 189.88, 440 192 M440 192 C327.56 190.26, 215.41 190.35, 32 192 M440 192 C317.31 192.25, 193.87 191.91, 32 192 M32 192 C11.04 190.58, -0.97 179.64, 0 160 M32 192 C11.96 192.41, -1.45 181.72, 0 160 M0 160 C-1.02 127.11, -0.67 95.75, 0 32 M0 160 C-0.98 118.26, -1.42 78.33, 0 32 M0 32 C0.83 11.61, 10.72 0.25, 32 0 M0 32 C-1.24 11.81, 11.86 1.64, 32 0" stroke="#000000" stroke-width="1" fill="none"></path></g><g stroke-linecap="round" transform="translate(1856.2874980569827 493.64913315860304) rotate(0 102.5 33)"><path d="M16.5 0 M16.5 0 C68 -2.21, 118.24 0.06, 188.5 0 M16.5 0 C78.94 -0.62, 139.89 -0.99, 188.5 0 M188.5 0 C200.25 -0.72, 206.8 5.84, 205 16.5 M188.5 0 C199.57 -1.83, 204.32 4.25, 205 16.5 M205 16.5 C203.56 30.81, 205.49 41.17, 205 49.5 M205 16.5 C204.39 24.15, 204.83 31.47, 205 49.5 M205 49.5 C206.7 59.49, 200.46 66.31, 188.5 66 M205 49.5 C203.35 58.99, 199.68 65.95, 188.5 66 M188.5 66 C138.73 66.44, 88.19 64.68, 16.5 66 M188.5 66 C126.05 66.01, 61.95 66.79, 16.5 66 M16.5 66 C4.39 65.53, 0.46 60.82, 0 49.5 M16.5 66 C7.34 66.21, -1.59 58.75, 0 49.5 M0 49.5 C-0.56 39.61, 2.13 31.83, 0 16.5 M0 49.5 C-0.97 39.53, -0.92 30.45, 0 16.5 M0 16.5 C-0.85 7.43, 5.83 0.87, 16.5 0 M0 16.5 C0.02 4.66, 3.29 -1.03, 16.5 0" stroke="#000000" stroke-width="1" fill="none"></path></g><g transform="translate(1921.2874980569827 513.149133158603) rotate(0 31.933332443237305 12)"><text x="0" y="0" font-family="Virgil, Segoe UI Emoji" font-size="20px" fill="#000000" text-anchor="start" style="white-space: pre;" direction="ltr" dominant-baseline="text-before-edge">Worker</text></g><g stroke-linecap="round" transform="translate(2081.2874980569827 410.64913315860304) rotate(0 102.5 33)"><path d="M16.5 0 M16.5 0 C61.36 0.85, 106.29 1.35, 188.5 0 M16.5 0 C69.57 0.58, 120.98 1.76, 188.5 0 M188.5 0 C200.41 1.19, 206.97 6.58, 205 16.5 M188.5 0 C199.75 1.94, 206.5 3.58, 205 16.5 M205 16.5 C205.99 29.64, 205.97 39.04, 205 49.5 M205 16.5 C204.07 26.71, 203.94 39.13, 205 49.5 M205 49.5 C203.87 61.57, 200.02 65.65, 188.5 66 M205 49.5 C206.53 62.68, 197.71 64.18, 188.5 66 M188.5 66 C151.68 67.29, 109.71 65.89, 16.5 66 M188.5 66 C132.77 64.85, 76.35 64.27, 16.5 66 M16.5 66 C7.15 64.45, -0.1 58.93, 0 49.5 M16.5 66 C5.05 67.86, -1.63 59.12, 0 49.5 M0 49.5 C0.35 38.59, 0.02 31.8, 0 16.5 M0 49.5 C-0.24 38.77, -0.15 30.22, 0 16.5 M0 16.5 C1.69 5.86, 3.68 -0.86, 16.5 0 M0 16.5 C-1 4.24, 5.66 -0.6, 16.5 0" stroke="#000000" stroke-width="1" fill="none"></path></g><g transform="translate(2146.2874980569827 430.14913315860304) rotate(0 31.933332443237305 12)"><text x="0" y="0" font-family="Virgil, Segoe UI Emoji" font-size="20px" fill="#000000" text-anchor="start" style="white-space: pre;" direction="ltr" dominant-baseline="text-before-edge">Worker</text></g><g stroke-linecap="round" transform="translate(2083.2874980569827 492.64913315860304) rotate(0 102.5 33)"><path d="M16.5 0 M16.5 0 C53.6 2.03, 88.5 2.46, 188.5 0 M16.5 0 C72.95 -1.03, 131.3 -1.19, 188.5 0 M188.5 0 C201.33 -1.97, 205.84 5.83, 205 16.5 M188.5 0 C201.33 0.98, 203.59 3.86, 205 16.5 M205 16.5 C205.8 25.44, 205.96 30.9, 205 49.5 M205 16.5 C205.28 30.04, 204.59 41.79, 205 49.5 M205 49.5 C206.46 60.28, 198.14 64.13, 188.5 66 M205 49.5 C203.43 59.27, 199.11 65.79, 188.5 66 M188.5 66 C122.56 65.56, 53.71 66.31, 16.5 66 M188.5 66 C139.73 67.3, 93.15 68.58, 16.5 66 M16.5 66 C4.08 67.2, 1.67 61.02, 0 49.5 M16.5 66 C5.49 67.45, 0.22 61.43, 0 49.5 M0 49.5 C-0.87 36.96, -0.1 24.85, 0 16.5 M0 49.5 C0.37 40.64, 0.21 29.54, 0 16.5 M0 16.5 C-1.11 5.04, 6.1 0.53, 16.5 0 M0 16.5 C-1.25 6.62, 7.57 -0.97, 16.5 0" stroke="#000000" stroke-width="1" fill="none"></path></g><g transform="translate(2148.2874980569827 512.149133158603) rotate(0 31.933332443237305 12)"><text x="0" y="0" font-family="Virgil, Segoe UI Emoji" font-size="20px" fill="#000000" text-anchor="start" style="white-space: pre;" direction="ltr" dominant-baseline="text-before-edge">Worker</text></g><g stroke-linecap="round"><g transform="translate(2210.79646759568 592.249133158603) rotate(0 0.13818590740993386 21.026365758972304)"><path d="M0.22 0.49 C0.43 7.36, 1.15 34.09, 1.4 41.1 M-1.12 -0.3 C-1.1 6.74, 0.02 35.53, 0.38 42.35" stroke="#000000" stroke-width="1" fill="none"></path></g><g transform="translate(2210.79646759568 592.249133158603) rotate(0 0.13818590740993386 21.026365758972304)"><path d="M-6.78 22.88 C-6.03 29.39, -1.13 36.46, 0.03 40.55 M-7.43 24.01 C-5.3 29.69, -0.42 37.86, 0.9 41.92" stroke="#000000" stroke-width="1" fill="none"></path></g><g transform="translate(2210.79646759568 592.249133158603) rotate(0 0.13818590740993386 21.026365758972304)"><path d="M7.45 22.25 C3.75 28.98, 4.19 36.26, 0.03 40.55 M6.81 23.38 C3.36 29.37, 2.66 37.79, 0.9 41.92" stroke="#000000" stroke-width="1" fill="none"></path></g></g><mask></mask><g stroke-linecap="round" transform="translate(1809.305137217139 353.64913315860304) rotate(0 264 191.5)"><path d="M32 0 M32 0 C194.39 -0.03, 356.17 -0.93, 496 0 M32 0 C171.25 -1.58, 310.46 -1.6, 496 0 M496 0 C517.92 1.79, 527.24 8.68, 528 32 M496 0 C516.42 -1.92, 527.64 11.12, 528 32 M528 32 C530.85 132.06, 529.38 228.59, 528 351 M528 32 C526.11 145.58, 525.9 259.52, 528 351 M528 351 C529.91 371.95, 516.6 383.09, 496 383 M528 351 C528.87 373.91, 519.45 382.62, 496 383 M496 383 C318.66 384.96, 139.35 384.83, 32 383 M496 383 C338.31 382.43, 181.18 382.12, 32 383 M32 383 C12.55 384.84, 0.58 371.85, 0 351 M32 383 C9.3 381.94, 1.64 372.49, 0 351 M0 351 C0.35 248.71, 0.67 148.5, 0 32 M0 351 C-0.15 231.34, 0.65 112.45, 0 32 M0 32 C-0.49 9.22, 9.2 -1.65, 32 0 M0 32 C1.68 9.61, 10.28 0.75, 32 0" stroke="#000000" stroke-width="1" fill="none"></path></g><g transform="translate(803.2885966897952 225.96938462344679) rotate(0 13.683333396911621 12)"><text x="0" y="0" font-family="Virgil, Segoe UI Emoji" font-size="20px" fill="#000000" text-anchor="start" style="white-space: pre;" direction="ltr" dominant-baseline="text-before-edge">Api</text></g><g stroke-linecap="round" transform="translate(1153.4334331155765 640.8570646771577) rotate(0 125.5 45.5)"><path d="M22.75 0 M22.75 0 C70.87 -1.93, 118.51 0.88, 228.25 0 M22.75 0 C72.86 -0.33, 123.99 -0.15, 228.25 0 M228.25 0 C242.25 0.66, 252.41 9.42, 251 22.75 M228.25 0 C243.15 1.78, 249.29 9.43, 251 22.75 M251 22.75 C251.94 34.99, 251.83 49.49, 251 68.25 M251 22.75 C250.1 33.35, 249.95 43.7, 251 68.25 M251 68.25 C250.7 84.54, 244.44 91.89, 228.25 91 M251 68.25 C253.11 84.61, 245.46 89.29, 228.25 91 M228.25 91 C159.53 90.01, 90.76 90.24, 22.75 91 M228.25 91 C163.99 90.62, 98.62 90.24, 22.75 91 M22.75 91 C6.68 91.25, 0.46 84.16, 0 68.25 M22.75 91 C6.27 90.63, 2.15 81.44, 0 68.25 M0 68.25 C-0.4 55.48, -0.01 42.85, 0 22.75 M0 68.25 C-0.41 55.66, 0.32 43.28, 0 22.75 M0 22.75 C1.25 6.61, 7.97 -1.37, 22.75 0 M0 22.75 C1.84 6.81, 9.01 -0.29, 22.75 0" stroke="#000000" stroke-width="1" fill="none"></path></g><g transform="translate(1208.4334331155765 671.3570646771577) rotate(0 67.46666717529297 12)"><text x="0" y="0" font-family="Virgil, Segoe UI Emoji" font-size="20px" fill="#000000" text-anchor="start" style="white-space: pre;" direction="ltr" dominant-baseline="text-before-edge">Docker Swarm</text></g><g stroke-linecap="round"><g transform="translate(1280.0049704429748 533.1142582747763) rotate(0 -1.4001287722620646 47.179792009191544)"><path d="M0.83 0.09 C0.39 15.75, -2.22 78.44, -2.58 94.03 M-0.2 -0.91 C-0.82 14.9, -3.4 79.37, -3.63 95.27" stroke="#000000" stroke-width="1" fill="none"></path></g><g transform="translate(1280.0049704429748 533.1142582747763) rotate(0 -1.4001287722620646 47.179792009191544)"><path d="M-12.91 66.48 C-11.11 77.17, -8.85 82.79, -1.75 95.41 M-12.52 66.9 C-10.75 73.62, -9.35 80.27, -2.67 94.88" stroke="#000000" stroke-width="1" fill="none"></path></g><g transform="translate(1280.0049704429748 533.1142582747763) rotate(0 -1.4001287722620646 47.179792009191544)"><path d="M7.6 67.08 C3.13 77.72, -0.88 83.16, -1.75 95.41 M7.99 67.5 C4.73 74.15, 1.09 80.65, -2.67 94.88" stroke="#000000" stroke-width="1" fill="none"></path></g></g><mask></mask><g stroke-linecap="round"><g transform="translate(1416.9342265726077 679.5027127224113) rotate(0 339.03334965482367 -0.41282266122908595)"><path d="M-0.43 -0.14 C112.78 -0.34, 565.59 -0.5, 678.5 -0.56 M1.54 -1.26 C114.71 -1.39, 564.83 0.19, 677.81 0.44" stroke="#000000" stroke-width="1" fill="none"></path></g><g transform="translate(1416.9342265726077 679.5027127224113) rotate(0 339.03334965482367 -0.41282266122908595)"><path d="M649.36 11.45 C654.51 6.71, 661.22 7.42, 677.36 0.87 M649.04 10.36 C657.66 7.15, 663.37 5.47, 677.08 1.24" stroke="#000000" stroke-width="1" fill="none"></path></g><g transform="translate(1416.9342265726077 679.5027127224113) rotate(0 339.03334965482367 -0.41282266122908595)"><path d="M649.42 -9.07 C654.65 -8.97, 661.35 -3.42, 677.36 0.87 M649.09 -10.16 C657.73 -8.03, 663.42 -4.35, 677.08 1.24" stroke="#000000" stroke-width="1" fill="none"></path></g></g><mask></mask><g transform="translate(2410.259757578467 633.0057463177827) rotate(0 93.94999694824219 48)"><text x="0" y="0" font-family="Virgil, Segoe UI Emoji" font-size="20px" fill="#000000" text-anchor="start" style="white-space: pre;" direction="ltr" dominant-baseline="text-before-edge">Une image pour:</text><text x="0" y="24" font-family="Virgil, Segoe UI Emoji" font-size="20px" fill="#000000" text-anchor="start" style="white-space: pre;" direction="ltr" dominant-baseline="text-before-edge">- Proxy (avec ACV)</text><text x="0" y="48" font-family="Virgil, Segoe UI Emoji" font-size="20px" fill="#000000" text-anchor="start" style="white-space: pre;" direction="ltr" dominant-baseline="text-before-edge">- Lobby (ACP)</text><text x="0" y="72" font-family="Virgil, Segoe UI Emoji" font-size="20px" fill="#000000" text-anchor="start" style="white-space: pre;" direction="ltr" dominant-baseline="text-before-edge">- Mini-jeux (ACP)</text></g><g stroke-linecap="round"><g transform="translate(2253.5601115823733 678.4795093030601) rotate(0 69.84261508699035 0.4477580771744556)"><path d="M1.14 0.16 C24.51 0.34, 116.61 0.34, 139.41 0.43 M0.28 -0.81 C23.6 -0.41, 115.35 1.24, 138.68 1.7" stroke="#000000" stroke-width="1" fill="none"></path></g><g transform="translate(2253.5601115823733 678.4795093030601) rotate(0 69.84261508699035 0.4477580771744556)"><path d="M110.56 12.12 C116.03 7.11, 123.06 6.21, 137.2 1.24 M109.86 11.25 C117.92 8.8, 124.51 5.49, 138.29 2.09" stroke="#000000" stroke-width="1" fill="none"></path></g><g transform="translate(2253.5601115823733 678.4795093030601) rotate(0 69.84261508699035 0.4477580771744556)"><path d="M110.94 -8.4 C116.22 -8.68, 123.16 -4.87, 137.2 1.24 M110.24 -9.27 C118.07 -6.28, 124.56 -4.14, 138.29 2.09" stroke="#000000" stroke-width="1" fill="none"></path></g></g><mask></mask><g stroke-linecap="round" transform="translate(1546.5887370706546 541.0980314740327) rotate(0 96 40)"><path d="M20 0 M20 0 C78.73 -2.58, 136 -2.29, 172 0 M20 0 C70.83 -0.73, 123.21 -0.06, 172 0 M172 0 C185.74 1.57, 192.56 5.16, 192 20 M172 0 C183.15 -1.66, 190.71 7.82, 192 20 M192 20 C193.55 33.95, 192.47 47.19, 192 60 M192 20 C191.33 31.43, 192.65 42.48, 192 60 M192 60 C193 74.36, 184.74 78.69, 172 80 M192 60 C191.49 74.95, 183.12 80.57, 172 80 M172 80 C137.15 77.37, 101.1 78.98, 20 80 M172 80 C142.23 77.84, 111.22 77.84, 20 80 M20 80 C7.49 79.97, -1.38 72.4, 0 60 M20 80 C5.08 82.3, 1.53 74.47, 0 60 M0 60 C1.72 46.25, 0.45 28.27, 0 20 M0 60 C0.54 44.42, -0.23 29.75, 0 20 M0 20 C-0.96 7.75, 6.91 -0.23, 20 0 M0 20 C0.65 6.13, 8.42 -1.84, 20 0" stroke="#000000" stroke-width="1" fill="none"></path></g><g transform="translate(1614.5887370706546 567.5980314740327) rotate(0 25.566667556762695 12)"><text x="0" y="0" font-family="Virgil, Segoe UI Emoji" font-size="20px" fill="#000000" text-anchor="start" style="white-space: pre;" direction="ltr" dominant-baseline="text-before-edge">Redis</text></g><g stroke-linecap="round"><g transform="translate(1467.5887370706546 437.07139253603236) rotate(0 178.33280812725428 -1.9027490718942204)"><path d="M-1.17 -0.21 C58.31 -0.85, 298.01 -3.15, 357.83 -3.6 M0.42 -1.36 C59.64 -1.88, 297.39 -2.36, 356.8 -2.39" stroke="#000000" stroke-width="1" fill="none"></path></g><g transform="translate(1467.5887370706546 437.07139253603236) rotate(0 178.33280812725428 -1.9027490718942204)"><path d="M328.28 7.64 C338.3 3.85, 350.24 1.81, 357.57 -2.41 M327.69 7.11 C337.09 4.55, 346.5 0.56, 357.26 -1.49" stroke="#000000" stroke-width="1" fill="none"></path></g><g transform="translate(1467.5887370706546 437.07139253603236) rotate(0 178.33280812725428 -1.9027490718942204)"><path d="M328.25 -12.89 C338.32 -8.85, 350.28 -3.06, 357.57 -2.41 M327.66 -13.41 C337.1 -9.65, 346.51 -7.31, 357.26 -1.49" stroke="#000000" stroke-width="1" fill="none"></path></g></g><mask></mask><g transform="translate(1556.4771858801855 446.78999067316624) rotate(0 99.7249984741211 24)"><text x="0" y="0" font-family="Virgil, Segoe UI Emoji" font-size="20px" fill="#000000" text-anchor="start" style="white-space: pre;" direction="ltr" dominant-baseline="text-before-edge">Clés "Queue:*" Redis</text><text x="0" y="24" font-family="Virgil, Segoe UI Emoji" font-size="20px" fill="#000000" text-anchor="start" style="white-space: pre;" direction="ltr" dominant-baseline="text-before-edge">   (List ou Set)</text></g><g stroke-linecap="round" transform="translate(1065.3173137308108 870.4155973920015) rotate(0 116.5 40.5)"><path d="M20.25 0 M20.25 0 C72.45 3, 125.74 2.38, 212.75 0 M20.25 0 C63.25 -0.25, 108.37 -0.35, 212.75 0 M212.75 0 C227.53 0.31, 232.7 8, 233 20.25 M212.75 0 C228.26 0.61, 231.87 7.75, 233 20.25 M233 20.25 C234.36 32.45, 233.68 41.97, 233 60.75 M233 20.25 C233.23 29.66, 233.2 40.05, 233 60.75 M233 60.75 C231.29 74.97, 224.27 79.74, 212.75 81 M233 60.75 C232.02 72.73, 224.99 79.2, 212.75 81 M212.75 81 C171.19 81.31, 129.87 79.78, 20.25 81 M212.75 81 C146.66 82.03, 80.33 82.32, 20.25 81 M20.25 81 C6.85 79.93, -0.08 75.04, 0 60.75 M20.25 81 C5.17 80.27, 0.24 74.94, 0 60.75 M0 60.75 C-1.39 47.52, -0.63 36.19, 0 20.25 M0 60.75 C-0.99 51.62, -0.72 43.01, 0 20.25 M0 20.25 C-0.75 5.58, 7.43 -1.16, 20.25 0 M0 20.25 C-1.64 5.86, 7.69 -1.33, 20.25 0" stroke="#000000" stroke-width="1" fill="none"></path></g><g transform="translate(1095.3173137308108 896.9155973920015) rotate(0 86.91666412353516 12)"><text x="0" y="0" font-family="Virgil, Segoe UI Emoji" font-size="20px" fill="#000000" text-anchor="start" style="white-space: pre;" direction="ltr" dominant-baseline="text-before-edge">prod.193c.proxy12s</text></g><g stroke-linecap="round" transform="translate(624.1760173440921 1050.4155973920015) rotate(0 120 40.5)"><path d="M20.25 0 M20.25 0 C59.77 0.63, 101.57 1.6, 219.75 0 M20.25 0 C70.83 1.29, 122.33 1.14, 219.75 0 M219.75 0 C234.69 -1.72, 239.83 7.98, 240 20.25 M219.75 0 C232.83 0.75, 240.38 5.55, 240 20.25 M240 20.25 C238.53 32.74, 240.07 48.77, 240 60.75 M240 20.25 C239.93 34.92, 239.8 49.61, 240 60.75 M240 60.75 C240.8 72.44, 234.23 80.88, 219.75 81 M240 60.75 C238.43 73.31, 234.58 80.36, 219.75 81 M219.75 81 C176.58 81.07, 129.31 83.9, 20.25 81 M219.75 81 C156.94 81.28, 92.14 82.8, 20.25 81 M20.25 81 C6.94 82.21, -1.96 76.16, 0 60.75 M20.25 81 C8.94 80.82, 0.22 74.43, 0 60.75 M0 60.75 C-1.18 49.49, 1.58 41.42, 0 20.25 M0 60.75 C-0.78 50.25, -0.48 39.56, 0 20.25 M0 20.25 C1.52 5.48, 6.66 -1.96, 20.25 0 M0 20.25 C1.95 4.8, 8.38 -0.76, 20.25 0" stroke="#000000" stroke-width="1" fill="none"></path></g><g transform="translate(651.1760173440921 1077.9155973920015) rotate(0 95.59166717529297 12)"><text x="0" y="0" font-family="Virgil, Segoe UI Emoji" font-size="20px" fill="#000000" text-anchor="start" style="white-space: pre;" direction="ltr" dominant-baseline="text-before-edge">prod.n193c.lobby24D</text></g><g stroke-linecap="round" transform="translate(884.1760173440921 1052.9155973920015) rotate(0 120 40.5)"><path d="M20.25 0 M20.25 0 C82.6 -1.08, 141.82 -1.77, 219.75 0 M20.25 0 C96.64 -1.94, 173.74 -0.64, 219.75 0 M219.75 0 C231.76 -1.9, 239.41 7.84, 240 20.25 M219.75 0 C231.4 1.02, 241.91 6.47, 240 20.25 M240 20.25 C239.8 36.38, 240.71 51.15, 240 60.75 M240 20.25 C239.38 32.31, 240.25 44.81, 240 60.75 M240 60.75 C239.89 73.1, 234.35 81.47, 219.75 81 M240 60.75 C242.06 73.94, 234.23 79.18, 219.75 81 M219.75 81 C175.58 81.26, 133.57 79.25, 20.25 81 M219.75 81 C179.96 81.79, 139.55 82.27, 20.25 81 M20.25 81 C5.33 81.92, 1.46 75.06, 0 60.75 M20.25 81 C7.84 80.44, 1.7 73.63, 0 60.75 M0 60.75 C-0.99 51.24, 0.01 38.76, 0 20.25 M0 60.75 C0 45.58, -0.41 31.04, 0 20.25 M0 20.25 C-1.33 7.4, 8.4 0.06, 20.25 0 M0 20.25 C-0.32 6.94, 6.44 1.35, 20.25 0" stroke="#000000" stroke-width="1" fill="none"></path></g><g transform="translate(906.1760173440921 1078.4155973920015) rotate(0 101.57499694824219 12)"><text x="0" y="0" font-family="Virgil, Segoe UI Emoji" font-size="20px" fill="#000000" text-anchor="start" style="white-space: pre;" direction="ltr" dominant-baseline="text-before-edge">prod.n193c.lobby892C</text></g><g stroke-linecap="round" transform="translate(744.1760173440921 1155.9155973920015) rotate(0 120 40.5)"><path d="M20.25 0 M20.25 0 C89.67 0.63, 157.05 2.57, 219.75 0 M20.25 0 C97.33 -2.28, 173.95 -1.65, 219.75 0 M219.75 0 C233.54 -0.48, 238.92 5.68, 240 20.25 M219.75 0 C232.97 2.05, 241.05 5.07, 240 20.25 M240 20.25 C239.62 31.99, 241.26 46.72, 240 60.75 M240 20.25 C238.99 30.27, 238.95 38.79, 240 60.75 M240 60.75 C239.48 75.14, 232.88 82.4, 219.75 81 M240 60.75 C239.92 75.98, 231.68 81.39, 219.75 81 M219.75 81 C147.57 81.57, 75.62 78.2, 20.25 81 M219.75 81 C174.85 82.16, 130.42 82.47, 20.25 81 M20.25 81 C6.51 80.51, -0.4 74.97, 0 60.75 M20.25 81 C7.63 82.63, -1.45 72.25, 0 60.75 M0 60.75 C1.81 50.76, 0.06 37, 0 20.25 M0 60.75 C1.21 46.53, 0.66 31.74, 0 20.25 M0 20.25 C-0.52 6.95, 5.18 -1.2, 20.25 0 M0 20.25 C-0.64 4.58, 7.22 1.41, 20.25 0" stroke="#000000" stroke-width="1" fill="none"></path></g><g transform="translate(775.1760173440921 1185.4155973920015) rotate(0 91.10832977294922 12)"><text x="0" y="0" font-family="Virgil, Segoe UI Emoji" font-size="20px" fill="#000000" text-anchor="start" style="white-space: pre;" direction="ltr" dominant-baseline="text-before-edge">prod.n23f.lobby92e</text></g><g stroke-linecap="round" transform="translate(588.0894694925296 1014.9088224896577) rotate(0 297.5 135)"><path d="M32 0 M32 0 C138.6 -0.92, 245.16 -0.68, 563 0 M32 0 C222.01 1.92, 411.74 1.63, 563 0 M563 0 C586.02 -0.7, 594.71 11.68, 595 32 M563 0 C586.18 1.63, 594.85 10.24, 595 32 M595 32 C597.1 113.05, 595.3 194.13, 595 238 M595 32 C595.99 85.08, 597.08 140.13, 595 238 M595 238 C594.54 259.11, 584.52 271.87, 563 270 M595 238 C594.17 261.48, 585.58 272.22, 563 270 M563 270 C402.08 268.48, 240.8 269.64, 32 270 M563 270 C399.68 271.54, 236.49 271.23, 32 270 M32 270 C10.37 271.33, -0.48 258.93, 0 238 M32 270 C10.04 270.95, 0.77 258.29, 0 238 M0 238 C1.75 156.65, -0.04 76.44, 0 32 M0 238 C1.23 196.15, 1.83 152.57, 0 32 M0 32 C-0.19 10.34, 9.89 -1.63, 32 0 M0 32 C-0.14 11.3, 11.77 1.25, 32 0" stroke="#000000" stroke-width="1" fill="none"></path></g><g transform="translate(508.0894694925296 1141.4088224896577) rotate(0 23.03333282470703 12)"><text x="0" y="0" font-family="Virgil, Segoe UI Emoji" font-size="20px" fill="#000000" text-anchor="start" style="white-space: pre;" direction="ltr" dominant-baseline="text-before-edge">lobby</text></g><g stroke-linecap="round" transform="translate(1021.0894694925296 845.9088224896577) rotate(0 159.5 68.5)"><path d="M32 0 M32 0 C114.88 0.54, 199.29 -1.62, 287 0 M32 0 C90.03 -0.56, 147.65 -0.51, 287 0 M287 0 C308.29 -0.11, 317.83 12.42, 319 32 M287 0 C310.36 1.29, 320.3 10.63, 319 32 M319 32 C320.16 47.29, 317.95 60.47, 319 105 M319 32 C318.92 51.64, 319.41 72.31, 319 105 M319 105 C320.96 124.88, 306.38 135.87, 287 137 M319 105 C318.21 124.53, 307.85 139.27, 287 137 M287 137 C211.78 136.82, 133.63 136.85, 32 137 M287 137 C226.36 136.39, 165.95 136.06, 32 137 M32 137 C10.55 135.33, 0.77 127.72, 0 105 M32 137 C10.62 138.73, 1.77 125.55, 0 105 M0 105 C2.21 83.47, 1.12 65.33, 0 32 M0 105 C0.55 88.76, 1.44 73.86, 0 32 M0 32 C0.22 11.46, 12.01 1.71, 32 0 M0 32 C-0.61 12.94, 12.81 -0.86, 32 0" stroke="#000000" stroke-width="1" fill="none"></path></g><g transform="translate(935.0894694925296 900.4088224896577) rotate(0 25.08333396911621 12)"><text x="0" y="0" font-family="Virgil, Segoe UI Emoji" font-size="20px" fill="#000000" text-anchor="start" style="white-space: pre;" direction="ltr" dominant-baseline="text-before-edge">proxy</text></g><g stroke-linecap="round" transform="translate(1329.590079844092 1024.9088224896577) rotate(0 271 126.5)"><path d="M32 0 M32 0 C168.92 0.85, 304.67 0.37, 510 0 M32 0 C127.68 1.82, 223.98 1.96, 510 0 M510 0 C529.75 1.59, 540.31 11.39, 542 32 M510 0 C531.16 -1.85, 540.73 9.11, 542 32 M542 32 C542.12 74.69, 542.45 116.41, 542 221 M542 32 C544.64 71.37, 543.08 109.4, 542 221 M542 221 C543.26 243.99, 529.52 252.72, 510 253 M542 221 C543.1 241.57, 532.86 254.72, 510 253 M510 253 C327.51 254.16, 146.42 253.89, 32 253 M510 253 C408.78 254.16, 307.07 254.48, 32 253 M32 253 C9.38 251.06, 1.93 242.29, 0 221 M32 253 C10.27 254.03, 0.76 241.96, 0 221 M0 221 C0.62 168.42, 1.94 115.4, 0 32 M0 221 C-1.18 169.48, -1.24 116.98, 0 32 M0 32 C-0.18 11.75, 12.24 -0.98, 32 0 M0 32 C-0.77 12.52, 10.7 -1.96, 32 0" stroke="#000000" stroke-width="1" fill="none"></path></g><g transform="translate(1265.094962656592 1149.4088224896577) rotate(0 15.383333206176758 12)"><text x="0" y="0" font-family="Virgil, Segoe UI Emoji" font-size="20px" fill="#000000" text-anchor="start" style="white-space: pre;" direction="ltr" dominant-baseline="text-before-edge">mini</text></g><g stroke-linecap="round" transform="translate(1370.603507578467 1058.4088224896577) rotate(0 107.5 40.5)"><path d="M20.25 0 M20.25 0 C85.56 -1.41, 151.42 -2, 194.75 0 M20.25 0 C81.5 -0.62, 143.74 -0.33, 194.75 0 M194.75 0 C206.42 0.73, 215.2 5.9, 215 20.25 M194.75 0 C207.57 -2.08, 215.35 6.77, 215 20.25 M215 20.25 C217.03 31.76, 213.17 46.33, 215 60.75 M215 20.25 C214.83 34.64, 215.77 50.52, 215 60.75 M215 60.75 C214.4 75.97, 207.41 80.9, 194.75 81 M215 60.75 C213.97 74.25, 209.73 81.96, 194.75 81 M194.75 81 C144.77 81.58, 99.3 78.37, 20.25 81 M194.75 81 C137.62 82.81, 79.25 82.97, 20.25 81 M20.25 81 C8.63 80.7, -1.56 74.51, 0 60.75 M20.25 81 C6.21 81.88, 1.88 76.3, 0 60.75 M0 60.75 C-1.28 51, 1.23 36.18, 0 20.25 M0 60.75 C0.9 44.26, 0.02 28.73, 0 20.25 M0 20.25 C1.77 7.24, 7.87 -0.19, 20.25 0 M0 20.25 C0.4 4.64, 5.82 -1.1, 20.25 0" stroke="#000000" stroke-width="1" fill="none"></path></g><g transform="translate(1393.603507578467 1084.9088224896577) rotate(0 86.13333129882812 12)"><text x="0" y="0" font-family="Virgil, Segoe UI Emoji" font-size="20px" fill="#000000" text-anchor="start" style="white-space: pre;" direction="ltr" dominant-baseline="text-before-edge">prod.n193c.mini93P</text></g><g stroke-linecap="round" transform="translate(1617.103507578467 1058.4088224896577) rotate(0 107.5 40.5)"><path d="M20.25 0 M20.25 0 C76.82 0.66, 135.87 0.14, 194.75 0 M20.25 0 C87.05 -1.59, 154 -1.35, 194.75 0 M194.75 0 C206.81 1.3, 216.65 8.66, 215 20.25 M194.75 0 C207.79 -2.25, 214.46 4.7, 215 20.25 M215 20.25 C213.66 29.02, 214.74 40.62, 215 60.75 M215 20.25 C215.9 30.1, 214.85 40.47, 215 60.75 M215 60.75 C214.07 72.47, 206.82 81.03, 194.75 81 M215 60.75 C213.06 74.95, 207.46 79.55, 194.75 81 M194.75 81 C148.49 82.61, 99.84 82.46, 20.25 81 M194.75 81 C158.92 80.16, 123.51 80.23, 20.25 81 M20.25 81 C4.96 80.21, -0.2 73.9, 0 60.75 M20.25 81 C7.31 81.81, 0.07 74.88, 0 60.75 M0 60.75 C1.06 46.87, -0.45 28.39, 0 20.25 M0 60.75 C0.36 47.1, 0.82 31.32, 0 20.25 M0 20.25 C-0.17 6.94, 8.28 -0.92, 20.25 0 M0 20.25 C0.3 6.03, 6.15 -0.24, 20.25 0" stroke="#000000" stroke-width="1" fill="none"></path></g><g transform="translate(1641.103507578467 1084.9088224896577) rotate(0 86.36666870117188 12)"><text x="0" y="0" font-family="Virgil, Segoe UI Emoji" font-size="20px" fill="#000000" text-anchor="start" style="white-space: pre;" direction="ltr" dominant-baseline="text-before-edge">prod.n23f.mini23M</text></g><g stroke-linecap="round" transform="translate(1372.103507578467 1163.4088224896577) rotate(0 107.5 40.5)"><path d="M20.25 0 M20.25 0 C60.67 1.44, 100.54 0.47, 194.75 0 M20.25 0 C63.39 -0.09, 108 0.5, 194.75 0 M194.75 0 C210.09 -0.39, 214.72 7.49, 215 20.25 M194.75 0 C207.63 -2.28, 213.83 8.55, 215 20.25 M215 20.25 C216.07 33.69, 215.78 46.32, 215 60.75 M215 20.25 C215.81 30.13, 215.46 38.54, 215 60.75 M215 60.75 C213.61 73.77, 207.23 82.56, 194.75 81 M215 60.75 C213.11 71.98, 208.18 80.95, 194.75 81 M194.75 81 C123.81 80.44, 57.34 81.01, 20.25 81 M194.75 81 C158.1 79.58, 120.24 79.54, 20.25 81 M20.25 81 C7.81 81.8, 0.69 73.28, 0 60.75 M20.25 81 C5.68 82.66, 1.8 75.52, 0 60.75 M0 60.75 C-0.82 49.33, 0.87 38.15, 0 20.25 M0 60.75 C0.67 52.27, -0.07 42.98, 0 20.25 M0 20.25 C0.92 6.56, 8.03 1.51, 20.25 0 M0 20.25 C0.41 7.9, 5.08 -1.76, 20.25 0" stroke="#000000" stroke-width="1" fill="none"></path></g><g transform="translate(1401.103507578467 1189.9088224896577) rotate(0 83.75 12)"><text x="0" y="0" font-family="Virgil, Segoe UI Emoji" font-size="20px" fill="#000000" text-anchor="start" style="white-space: pre;" direction="ltr" dominant-baseline="text-before-edge">prod.n12Y.mini321K</text></g><g stroke-linecap="round" transform="translate(1615.103507578467 1166.4088224896577) rotate(0 107.5 40.5)"><path d="M20.25 0 M20.25 0 C63.65 -0.96, 104.28 -0.15, 194.75 0 M20.25 0 C62.34 -1.92, 107.17 -2.4, 194.75 0 M194.75 0 C209.93 0.45, 215.09 6.25, 215 20.25 M194.75 0 C208.6 0.64, 214.34 8.45, 215 20.25 M215 20.25 C214.61 31.81, 215.52 46.27, 215 60.75 M215 20.25 C214.83 34.79, 215.52 46.91, 215 60.75 M215 60.75 C216.86 73.07, 208.61 81.36, 194.75 81 M215 60.75 C213.89 73.41, 209.02 80.91, 194.75 81 M194.75 81 C139.22 81.76, 88.55 79.78, 20.25 81 M194.75 81 C129.47 81.5, 63.36 81.43, 20.25 81 M20.25 81 C5.98 80.17, 0.84 73.93, 0 60.75 M20.25 81 C6.43 79, 1.38 73.04, 0 60.75 M0 60.75 C1.98 44.93, 1.85 32.38, 0 20.25 M0 60.75 C-0.81 50.45, -0.58 39.88, 0 20.25 M0 20.25 C1.11 4.87, 5.66 -1.3, 20.25 0 M0 20.25 C-0.65 6.48, 6.09 -2.16, 20.25 0" stroke="#000000" stroke-width="1" fill="none"></path></g><g transform="translate(1639.103507578467 1192.9088224896577) rotate(0 84.9749984741211 12)"><text x="0" y="0" font-family="Virgil, Segoe UI Emoji" font-size="20px" fill="#000000" text-anchor="start" style="white-space: pre;" direction="ltr" dominant-baseline="text-before-edge">prod.n193c.mini75R</text></g><g stroke-linecap="round" transform="translate(471.6413493753421 811.450143290439) rotate(0 718.0000000000001 252.5)"><path d="M32 0 M32 0 C544.22 -3.36, 1057.32 -3.3, 1404 0 M32 0 C363.37 -0.43, 694.07 -0.07, 1404 0 M1404 0 C1425.6 -1.18, 1436.65 11.09, 1436 32 M1404 0 C1424.72 1.26, 1434.93 9.13, 1436 32 M1436 32 C1435.34 163.36, 1434.41 293.56, 1436 473 M1436 32 C1437.41 121.94, 1436.89 211.83, 1436 473 M1436 473 C1434.62 493.14, 1426.28 504.19, 1404 505 M1436 473 C1435.99 495.68, 1423.79 505.24, 1404 505 M1404 505 C952.97 499.52, 501.63 499.22, 32 505 M1404 505 C1118.99 499.57, 834.14 500.2, 32 505 M32 505 C10.68 506.07, 0.43 493.61, 0 473 M32 505 C8.6 506.51, 1.9 495.94, 0 473 M0 473 C-1.69 374.27, -0.62 277.47, 0 32 M0 473 C-0.1 359.92, -0.14 247.1, 0 32 M0 32 C-0.39 11.59, 10.89 -1.28, 32 0 M0 32 C-1.37 9.13, 12.92 -1.28, 32 0" stroke="#000000" stroke-width="1" fill="none"></path></g><g transform="translate(343.6746745706546 1043.950143290439) rotate(0 45.891666412353516 12)"><text x="0" y="0" font-family="Virgil, Segoe UI Emoji" font-size="20px" fill="#000000" text-anchor="start" style="white-space: pre;" direction="ltr" dominant-baseline="text-before-edge">infra.prod</text></g><g stroke-linecap="round"><g transform="translate(1278.0092326509043 745.4473967084077) rotate(0 1.2991407205046244 24.54205307404044)"><path d="M-0.48 0.14 C0.02 8.3, 2.53 41.86, 3.08 49.91 M1.47 -0.83 C1.84 6.92, 2.23 39.88, 2.34 48.27" stroke="#000000" stroke-width="1" fill="none"></path></g><g transform="translate(1278.0092326509043 745.4473967084077) rotate(0 1.2991407205046244 24.54205307404044)"><path d="M-6.11 25.99 C-2 32.58, -1.8 40.26, 2 47.51 M-7.09 26.07 C-4.9 31.02, -2.44 36.73, 2.17 48.29" stroke="#000000" stroke-width="1" fill="none"></path></g><g transform="translate(1278.0092326509043 745.4473967084077) rotate(0 1.2991407205046244 24.54205307404044)"><path d="M10.68 25.77 C9.67 32.36, 4.76 40.11, 2 47.51 M9.69 25.85 C7.66 31.01, 5.89 36.78, 2.17 48.29" stroke="#000000" stroke-width="1" fill="none"></path></g></g><mask></mask><g transform="translate(474.94023853549834 1348.7225126752046) rotate(0 564.2999877929688 84)"><text x="0" y="0" font-family="Virgil, Segoe UI Emoji" font-size="20px" fill="#000000" text-anchor="start" style="white-space: pre;" direction="ltr" dominant-baseline="text-before-edge">- Une file d'attente par groupe (lobby, mini etc)</text><text x="0" y="24" font-family="Virgil, Segoe UI Emoji" font-size="20px" fill="#000000" text-anchor="start" style="white-space: pre;" direction="ltr" dominant-baseline="text-before-edge">- Les files d'attente peuvent contenir des party ou des joueurs</text><text x="0" y="48" font-family="Virgil, Segoe UI Emoji" font-size="20px" fill="#000000" text-anchor="start" style="white-space: pre;" direction="ltr" dominant-baseline="text-before-edge"></text><text x="0" y="72" font-family="Virgil, Segoe UI Emoji" font-size="20px" fill="#000000" text-anchor="start" style="white-space: pre;" direction="ltr" dominant-baseline="text-before-edge">- Chaque instance de groupe est subscribed au nom de son groupe mais également à son nom d'instance</text><text x="0" y="96" font-family="Virgil, Segoe UI Emoji" font-size="20px" fill="#000000" text-anchor="start" style="white-space: pre;" direction="ltr" dominant-baseline="text-before-edge"></text><text x="0" y="120" font-family="Virgil, Segoe UI Emoji" font-size="20px" fill="#000000" text-anchor="start" style="white-space: pre;" direction="ltr" dominant-baseline="text-before-edge">- Chaque instance a de la métadonnée: les joueurs, le nombre max de joueurs, la template, la permission d'entrée</text><text x="0" y="144" font-family="Virgil, Segoe UI Emoji" font-size="20px" fill="#000000" text-anchor="start" style="white-space: pre;" direction="ltr" dominant-baseline="text-before-edge">  Un jeu a de la métadonnée custom: l'id du jeu chargé</text></g><g stroke-linecap="round"><g transform="translate(1643.6356120706546 810.4402650375484) rotate(0 -0.7913028169097629 -91.2265852100744)"><path d="M-0.75 1.08 C-1.36 -29, -2.51 -151.1, -2.64 -181.65 M1.06 0.61 C0.75 -29.75, 0.26 -153.27, -0.27 -183.54" stroke="#000000" stroke-width="1" fill="none"></path></g><g transform="translate(1643.6356120706546 810.4402650375484) rotate(0 -0.7913028169097629 -91.2265852100744)"><path d="M12.07 -156.52 C7.24 -165.61, 2.22 -176.67, 0.17 -183.18 M10.68 -154.59 C8.29 -162.53, 5.7 -169.65, 0.72 -184.01" stroke="#000000" stroke-width="1" fill="none"></path></g><g transform="translate(1643.6356120706546 810.4402650375484) rotate(0 -0.7913028169097629 -91.2265852100744)"><path d="M-8.45 -156.32 C-5.37 -165.36, -2.48 -176.49, 0.17 -183.18 M-9.84 -154.39 C-7.14 -162.44, -4.63 -169.61, 0.72 -184.01" stroke="#000000" stroke-width="1" fill="none"></path></g></g><mask></mask><g transform="translate(946.4838786722171 594.0691618451265) rotate(0 143.21665954589844 9.600000000000023)"><text x="0" y="0" font-family="Virgil, Segoe UI Emoji" font-size="16px" fill="#495057" text-anchor="start" style="white-space: pre;" direction="ltr" dominant-baseline="text-before-edge">https://github.com/apocas/dockerode</text></g><g stroke-linecap="round"><g transform="translate(2149.0630412698733 389.3123259076265) rotate(0 65.05213567242026 -80.75895660147071)"><path d="M-0.51 0.33 C21.26 -26.48, 108.89 -134.81, 130.61 -161.85 M1.43 -0.54 C23.09 -27.05, 108.73 -133.57, 129.98 -160.23" stroke="#c92a2a" stroke-width="1" fill="none"></path></g><g transform="translate(2149.0630412698733 389.3123259076265) rotate(0 65.05213567242026 -80.75895660147071)"><path d="M120.91 -130.8 C123.73 -140.64, 126.57 -148.78, 128.78 -158.34 M121.23 -132.6 C123.35 -140.89, 126.06 -148.99, 129.73 -160.06" stroke="#c92a2a" stroke-width="1" fill="none"></path></g><g transform="translate(2149.0630412698733 389.3123259076265) rotate(0 65.05213567242026 -80.75895660147071)"><path d="M104.9 -143.63 C112.42 -149.55, 120.06 -153.84, 128.78 -158.34 M105.22 -145.44 C112.32 -149.76, 120.04 -153.84, 129.73 -160.06" stroke="#c92a2a" stroke-width="1" fill="none"></path></g></g><mask></mask><g transform="translate(2284.0630412698733 204.81232590762647) rotate(0 77.78333282470703 9.599999999999994)"><text x="0" y="0" font-family="Virgil, Segoe UI Emoji" font-size="16px" fill="#c92a2a" text-anchor="start" style="white-space: pre;" direction="ltr" dominant-baseline="text-before-edge">A voir si nécessaire</text></g><g stroke-linecap="round"><g transform="translate(1148.9592509866702 863.3945402630952) rotate(0 -132.79665119190236 -62.78968431818765)"><path d="M0.34 0.19 C-43.71 -20.51, -220.71 -103.08, -264.99 -124.11 M-0.94 -0.76 C-45.09 -21.79, -221.71 -105.03, -265.93 -125.77" stroke="#c92a2a" stroke-width="1" fill="none"></path></g><g transform="translate(1148.9592509866702 863.3945402630952) rotate(0 -132.79665119190236 -62.78968431818765)"><path d="M-235.74 -123.04 C-241.87 -124.16, -252.28 -125.63, -265.2 -127.03 M-235.98 -122.34 C-243.65 -123.93, -253.01 -124.34, -265.75 -125.6" stroke="#c92a2a" stroke-width="1" fill="none"></path></g><g transform="translate(1148.9592509866702 863.3945402630952) rotate(0 -132.79665119190236 -62.78968431818765)"><path d="M-244.47 -104.47 C-248.48 -110.15, -256.77 -116.14, -265.2 -127.03 M-244.71 -103.77 C-249.76 -110.63, -256.67 -116.23, -265.75 -125.6" stroke="#c92a2a" stroke-width="1" fill="none"></path></g></g><mask></mask><g transform="translate(822.9592509866702 722.8945402630952) rotate(0 25.641666412353516 9.600000000000023)"><text x="0" y="0" font-family="Virgil, Segoe UI Emoji" font-size="16px" fill="#c92a2a" text-anchor="start" style="white-space: pre;" direction="ltr" dominant-baseline="text-before-edge">25565</text></g><g transform="translate(140.2524638772952 1112.068063212314) rotate(0 147.46665954589844 38.39999999999998)"><text x="0" y="0" font-family="Virgil, Segoe UI Emoji" font-size="16px" fill="#000000" text-anchor="start" style="white-space: pre;" direction="ltr" dominant-baseline="text-before-edge">Une infrastructure peut contenir</text><text x="0" y="19.2" font-family="Virgil, Segoe UI Emoji" font-size="16px" fill="#000000" text-anchor="start" style="white-space: pre;" direction="ltr" dominant-baseline="text-before-edge">plusieurs nodes.</text><text x="0" y="38.4" font-family="Virgil, Segoe UI Emoji" font-size="16px" fill="#000000" text-anchor="start" style="white-space: pre;" direction="ltr" dominant-baseline="text-before-edge"></text><text x="0" y="57.599999999999994" font-family="Virgil, Segoe UI Emoji" font-size="16px" fill="#000000" text-anchor="start" style="white-space: pre;" direction="ltr" dominant-baseline="text-before-edge">Format des noms de chaque instance:</text></g><g transform="translate(89.20715976465488 1208.6082672166463) rotate(0 173.6750030517578 9.600000000000023)"><text x="0" y="0" font-family="Virgil, Segoe UI Emoji" font-size="16px" fill="#1864ab" text-anchor="start" style="white-space: pre;" direction="ltr" dominant-baseline="text-before-edge">&lt;nom infra&gt;.&lt;template&gt;&lt;identifiant instance&gt;</text></g><g transform="translate(1398.2534984790136 859.3936161300469) rotate(0 166.5 9.600000000000023)"><text x="0" y="0" font-family="Virgil, Segoe UI Emoji" font-size="16px" fill="#000000" text-anchor="start" style="white-space: pre;" direction="ltr" dominant-baseline="text-before-edge">Chaque serveur peut parler à l'API REST</text></g><g transform="translate(1470.5269376388787 733.045868270476) rotate(0 77.99166870117188 28.80000000000001)"><text x="0" y="0" font-family="Virgil, Segoe UI Emoji" font-size="16px" fill="#c92a2a" text-anchor="start" style="white-space: pre;" direction="ltr" dominant-baseline="text-before-edge">Les serveurs</text><text x="0" y="19.2" font-family="Virgil, Segoe UI Emoji" font-size="16px" fill="#c92a2a" text-anchor="start" style="white-space: pre;" direction="ltr" dominant-baseline="text-before-edge">ne parlent jamais</text><text x="0" y="38.4" font-family="Virgil, Segoe UI Emoji" font-size="16px" fill="#c92a2a" text-anchor="start" style="white-space: pre;" direction="ltr" dominant-baseline="text-before-edge">directement à Redis</text></g><g transform="translate(2409.7907865561056 410.0088437035548) rotate(0 213.52499389648426 60)"><text x="0" y="0" font-family="Virgil, Segoe UI Emoji" font-size="20px" fill="#e67700" text-anchor="start" style="white-space: pre;" direction="ltr" dominant-baseline="text-before-edge">Les workers permettent le traitement</text><text x="0" y="24" font-family="Virgil, Segoe UI Emoji" font-size="20px" fill="#e67700" text-anchor="start" style="white-space: pre;" direction="ltr" dominant-baseline="text-before-edge">unique de tâche dans le système distribué.</text><text x="0" y="48" font-family="Virgil, Segoe UI Emoji" font-size="20px" fill="#e67700" text-anchor="start" style="white-space: pre;" direction="ltr" dominant-baseline="text-before-edge"></text><text x="0" y="72" font-family="Virgil, Segoe UI Emoji" font-size="20px" fill="#e67700" text-anchor="start" style="white-space: pre;" direction="ltr" dominant-baseline="text-before-edge">Les tâches sont crées dans des clés</text><text x="0" y="96" font-family="Virgil, Segoe UI Emoji" font-size="20px" fill="#e67700" text-anchor="start" style="white-space: pre;" direction="ltr" dominant-baseline="text-before-edge">sur Redis.</text></g><g stroke-linecap="round"><g transform="translate(1422.521479307369 519.6851716255732) rotate(0 56.05574690119238 19.11575140378278)"><path d="M-0.21 1.15 C18.65 7.22, 94.79 30.03, 113.9 35.91 M-1.78 0.71 C16.81 7.04, 93.44 31.91, 112.67 37.52" stroke="#000000" stroke-width="1" fill="none"></path></g><g transform="translate(1422.521479307369 519.6851716255732) rotate(0 56.05574690119238 19.11575140378278)"><path d="M84.62 38.06 C93.76 38.43, 105.37 39.83, 113.91 36.37 M82.62 38.74 C94.45 37.98, 105.98 38.84, 112.91 37.76" stroke="#000000" stroke-width="1" fill="none"></path></g><g transform="translate(1422.521479307369 519.6851716255732) rotate(0 56.05574690119238 19.11575140378278)"><path d="M90.71 18.47 C97.57 25.88, 106.99 34.35, 113.91 36.37 M88.72 19.15 C98.17 25.99, 107.33 34.46, 112.91 37.76" stroke="#000000" stroke-width="1" fill="none"></path></g></g><mask></mask><g stroke-linecap="round"><g transform="translate(1832.5554438093054 556.6359067987127) rotate(0 -43.47991535298081 4.826383931697251)"><path d="M-0.47 0.66 C-15.26 1.98, -72.96 7.04, -87.74 8.63 M1.49 -0.04 C-13.51 1.35, -73.74 8.32, -88.45 9.69" stroke="#000000" stroke-width="1" fill="none"></path></g><g transform="translate(1832.5554438093054 556.6359067987127) rotate(0 -43.47991535298081 4.826383931697251)"><path d="M-60.39 -2.71 C-73.31 -0.08, -81.14 5.73, -86.47 11.26 M-61.99 -3.79 C-69.46 0.5, -77.36 4.69, -88.15 9.81" stroke="#000000" stroke-width="1" fill="none"></path></g><g transform="translate(1832.5554438093054 556.6359067987127) rotate(0 -43.47991535298081 4.826383931697251)"><path d="M-58.23 17.7 C-72.11 12.46, -80.76 10.4, -86.47 11.26 M-59.84 16.62 C-67.84 14.6, -76.41 12.49, -88.15 9.81" stroke="#000000" stroke-width="1" fill="none"></path></g></g><mask></mask><g stroke-linecap="round" transform="translate(10 10) rotate(0 1449.3338065939272 795.4829930386948)"><path d="M32 0 M32 0 C637.37 8.44, 1241.35 8.11, 2866.67 0 M32 0 C749.71 2.27, 1467.13 2.26, 2866.67 0 M2866.67 0 C2886.33 1.92, 2899.54 10.51, 2898.67 32 M2866.67 0 C2888.82 -0.6, 2897.36 9.7, 2898.67 32 M2898.67 32 C2895.23 574.24, 2895.61 1116.93, 2898.67 1558.97 M2898.67 32 C2901.66 456.3, 2901.39 880.71, 2898.67 1558.97 M2898.67 1558.97 C2897.19 1579.02, 2887.88 1591.61, 2866.67 1590.97 M2898.67 1558.97 C2898.48 1582.48, 2885.8 1589.72, 2866.67 1590.97 M2866.67 1590.97 C1735.31 1599.2, 603.99 1599.12, 32 1590.97 M2866.67 1590.97 C1936.66 1594.79, 1006.91 1594.18, 32 1590.97 M32 1590.97 C12.41 1589.62, -0.77 1581.59, 0 1558.97 M32 1590.97 C12.3 1592.85, 1.14 1581.41, 0 1558.97 M0 1558.97 C-0.65 1160.81, -0.57 763.22, 0 32 M0 1558.97 C5.06 1233.96, 5.17 908.18, 0 32 M0 32 C0.16 11.02, 11.76 -1.09, 32 0 M0 32 C1.27 12.88, 8.51 0.19, 32 0" stroke="#000000" stroke-width="1" fill="none"></path></g></svg>